%TF.GenerationSoftware,KiCad,Pcbnew,(5.99.0-3294-g9c46e491e)*%
%TF.CreationDate,2020-11-17T05:13:20-05:00*%
%TF.ProjectId,mobile-tag,6d6f6269-6c65-42d7-9461-672e6b696361,rev?*%
%TF.SameCoordinates,Original*%
%TF.FileFunction,Soldermask,Top*%
%TF.FilePolarity,Negative*%
%FSLAX46Y46*%
G04 Gerber Fmt 4.6, Leading zero omitted, Abs format (unit mm)*
G04 Created by KiCad (PCBNEW (5.99.0-3294-g9c46e491e)) date 2020-11-17 05:13:20*
%MOMM*%
%LPD*%
G01*
G04 APERTURE LIST*
%ADD10C,2.700000*%
%ADD11R,1.700000X1.700000*%
%ADD12C,1.700000*%
%ADD13C,1.800000*%
%ADD14C,1.500000*%
%ADD15C,7.400000*%
%ADD16O,0.800000X0.800000*%
%ADD17R,1.300000X0.450000*%
%ADD18O,1.800000X1.150000*%
%ADD19O,2.000000X1.450000*%
%ADD20R,0.800000X0.500000*%
%ADD21R,0.800000X0.400000*%
%ADD22R,1.800000X2.500000*%
%ADD23O,1.700000X1.700000*%
%ADD24C,1.000000*%
%ADD25R,2.540000X0.650000*%
%ADD26R,0.500000X2.000000*%
%ADD27R,1.500000X2.000000*%
%ADD28R,3.800000X2.000000*%
%ADD29C,2.000000*%
%ADD30C,3.000000*%
G04 APERTURE END LIST*
D10*
%TO.C,Display1*%
X148463000Y-99314000D03*
X148463000Y-69850000D03*
X119507000Y-69850000D03*
X119507000Y-99314000D03*
D11*
X125095000Y-69850000D03*
D12*
X127635000Y-69850000D03*
X130175000Y-69850000D03*
X132715000Y-69850000D03*
X135255000Y-69850000D03*
X137795000Y-69850000D03*
X140335000Y-69850000D03*
X142875000Y-69850000D03*
%TD*%
%TO.C,D2*%
G36*
G01*
X103785000Y-77235000D02*
X103785000Y-76435000D01*
G75*
G02*
X104035000Y-76185000I250000J0D01*
G01*
X104860000Y-76185000D01*
G75*
G02*
X105110000Y-76435000I0J-250000D01*
G01*
X105110000Y-77235000D01*
G75*
G02*
X104860000Y-77485000I-250000J0D01*
G01*
X104035000Y-77485000D01*
G75*
G02*
X103785000Y-77235000I0J250000D01*
G01*
G37*
G36*
G01*
X105710000Y-77235000D02*
X105710000Y-76435000D01*
G75*
G02*
X105960000Y-76185000I250000J0D01*
G01*
X106785000Y-76185000D01*
G75*
G02*
X107035000Y-76435000I0J-250000D01*
G01*
X107035000Y-77235000D01*
G75*
G02*
X106785000Y-77485000I-250000J0D01*
G01*
X105960000Y-77485000D01*
G75*
G02*
X105710000Y-77235000I0J250000D01*
G01*
G37*
%TD*%
D13*
%TO.C,Nav_Switch1*%
X112395000Y-83820000D03*
D14*
X108695000Y-83820000D03*
D13*
X105895000Y-83820000D03*
X105895000Y-94120000D03*
D14*
X108695000Y-94120000D03*
D13*
X112395000Y-94120000D03*
%TD*%
%TO.C,D3*%
G36*
G01*
X103785000Y-71520000D02*
X103785000Y-70720000D01*
G75*
G02*
X104035000Y-70470000I250000J0D01*
G01*
X104860000Y-70470000D01*
G75*
G02*
X105110000Y-70720000I0J-250000D01*
G01*
X105110000Y-71520000D01*
G75*
G02*
X104860000Y-71770000I-250000J0D01*
G01*
X104035000Y-71770000D01*
G75*
G02*
X103785000Y-71520000I0J250000D01*
G01*
G37*
G36*
G01*
X105710000Y-71520000D02*
X105710000Y-70720000D01*
G75*
G02*
X105960000Y-70470000I250000J0D01*
G01*
X106785000Y-70470000D01*
G75*
G02*
X107035000Y-70720000I0J-250000D01*
G01*
X107035000Y-71520000D01*
G75*
G02*
X106785000Y-71770000I-250000J0D01*
G01*
X105960000Y-71770000D01*
G75*
G02*
X105710000Y-71520000I0J250000D01*
G01*
G37*
%TD*%
D15*
%TO.C,REF\u002A\u002A*%
X157480000Y-101600000D03*
%TD*%
%TO.C,*%
X156845000Y-41275000D03*
%TD*%
%TO.C,R2*%
G36*
G01*
X109560000Y-71744999D02*
X109560000Y-70495001D01*
G75*
G02*
X109810001Y-70245000I250001J0D01*
G01*
X110734999Y-70245000D01*
G75*
G02*
X110985000Y-70495001I0J-250001D01*
G01*
X110985000Y-71744999D01*
G75*
G02*
X110734999Y-71995000I-250001J0D01*
G01*
X109810001Y-71995000D01*
G75*
G02*
X109560000Y-71744999I0J250001D01*
G01*
G37*
G36*
G01*
X112535000Y-71744999D02*
X112535000Y-70495001D01*
G75*
G02*
X112785001Y-70245000I250001J0D01*
G01*
X113709999Y-70245000D01*
G75*
G02*
X113960000Y-70495001I0J-250001D01*
G01*
X113960000Y-71744999D01*
G75*
G02*
X113709999Y-71995000I-250001J0D01*
G01*
X112785001Y-71995000D01*
G75*
G02*
X112535000Y-71744999I0J250001D01*
G01*
G37*
%TD*%
%TO.C,R4*%
G36*
G01*
X120056000Y-84615001D02*
X120056000Y-85864999D01*
G75*
G02*
X119805999Y-86115000I-250001J0D01*
G01*
X118881001Y-86115000D01*
G75*
G02*
X118631000Y-85864999I0J250001D01*
G01*
X118631000Y-84615001D01*
G75*
G02*
X118881001Y-84365000I250001J0D01*
G01*
X119805999Y-84365000D01*
G75*
G02*
X120056000Y-84615001I0J-250001D01*
G01*
G37*
G36*
G01*
X117081000Y-84615001D02*
X117081000Y-85864999D01*
G75*
G02*
X116830999Y-86115000I-250001J0D01*
G01*
X115906001Y-86115000D01*
G75*
G02*
X115656000Y-85864999I0J250001D01*
G01*
X115656000Y-84615001D01*
G75*
G02*
X115906001Y-84365000I250001J0D01*
G01*
X116830999Y-84365000D01*
G75*
G02*
X117081000Y-84615001I0J-250001D01*
G01*
G37*
%TD*%
%TO.C,*%
X107315000Y-41275000D03*
%TD*%
D16*
%TO.C,J2*%
X156253780Y-84493021D03*
X156253780Y-89493021D03*
D17*
X155153780Y-88293021D03*
X155153780Y-87643021D03*
X155153780Y-86993021D03*
X155153780Y-86343021D03*
X155153780Y-85693021D03*
D18*
X159003780Y-83118021D03*
D19*
X155203780Y-90718021D03*
D18*
X159003780Y-90868021D03*
D19*
X155203780Y-83268021D03*
%TD*%
D20*
%TO.C,RN1*%
X117374000Y-78452000D03*
D21*
X117374000Y-79252000D03*
X117374000Y-80052000D03*
D20*
X117374000Y-80852000D03*
X119174000Y-80852000D03*
D21*
X119174000Y-80052000D03*
X119174000Y-79252000D03*
D20*
X119174000Y-78452000D03*
%TD*%
D22*
%TO.C,D1*%
X124460000Y-76740000D03*
X124460000Y-80740000D03*
%TD*%
%TO.C,R3*%
G36*
G01*
X109560000Y-64759999D02*
X109560000Y-63510001D01*
G75*
G02*
X109810001Y-63260000I250001J0D01*
G01*
X110734999Y-63260000D01*
G75*
G02*
X110985000Y-63510001I0J-250001D01*
G01*
X110985000Y-64759999D01*
G75*
G02*
X110734999Y-65010000I-250001J0D01*
G01*
X109810001Y-65010000D01*
G75*
G02*
X109560000Y-64759999I0J250001D01*
G01*
G37*
G36*
G01*
X112535000Y-64759999D02*
X112535000Y-63510001D01*
G75*
G02*
X112785001Y-63260000I250001J0D01*
G01*
X113709999Y-63260000D01*
G75*
G02*
X113960000Y-63510001I0J-250001D01*
G01*
X113960000Y-64759999D01*
G75*
G02*
X113709999Y-65010000I-250001J0D01*
G01*
X112785001Y-65010000D01*
G75*
G02*
X112535000Y-64759999I0J250001D01*
G01*
G37*
%TD*%
%TO.C,C2*%
G36*
G01*
X132265000Y-75235000D02*
X133165000Y-75235000D01*
G75*
G02*
X133415000Y-75485000I0J-250000D01*
G01*
X133415000Y-76135000D01*
G75*
G02*
X133165000Y-76385000I-250000J0D01*
G01*
X132265000Y-76385000D01*
G75*
G02*
X132015000Y-76135000I0J250000D01*
G01*
X132015000Y-75485000D01*
G75*
G02*
X132265000Y-75235000I250000J0D01*
G01*
G37*
G36*
G01*
X132265000Y-77285000D02*
X133165000Y-77285000D01*
G75*
G02*
X133415000Y-77535000I0J-250000D01*
G01*
X133415000Y-78185000D01*
G75*
G02*
X133165000Y-78435000I-250000J0D01*
G01*
X132265000Y-78435000D01*
G75*
G02*
X132015000Y-78185000I0J250000D01*
G01*
X132015000Y-77535000D01*
G75*
G02*
X132265000Y-77285000I250000J0D01*
G01*
G37*
%TD*%
%TO.C,R1*%
G36*
G01*
X109560000Y-77459999D02*
X109560000Y-76210001D01*
G75*
G02*
X109810001Y-75960000I250001J0D01*
G01*
X110734999Y-75960000D01*
G75*
G02*
X110985000Y-76210001I0J-250001D01*
G01*
X110985000Y-77459999D01*
G75*
G02*
X110734999Y-77710000I-250001J0D01*
G01*
X109810001Y-77710000D01*
G75*
G02*
X109560000Y-77459999I0J250001D01*
G01*
G37*
G36*
G01*
X112535000Y-77459999D02*
X112535000Y-76210001D01*
G75*
G02*
X112785001Y-75960000I250001J0D01*
G01*
X113709999Y-75960000D01*
G75*
G02*
X113960000Y-76210001I0J-250001D01*
G01*
X113960000Y-77459999D01*
G75*
G02*
X113709999Y-77710000I-250001J0D01*
G01*
X112785001Y-77710000D01*
G75*
G02*
X112535000Y-77459999I0J250001D01*
G01*
G37*
%TD*%
%TO.C,D4*%
G36*
G01*
X103785000Y-64535000D02*
X103785000Y-63735000D01*
G75*
G02*
X104035000Y-63485000I250000J0D01*
G01*
X104860000Y-63485000D01*
G75*
G02*
X105110000Y-63735000I0J-250000D01*
G01*
X105110000Y-64535000D01*
G75*
G02*
X104860000Y-64785000I-250000J0D01*
G01*
X104035000Y-64785000D01*
G75*
G02*
X103785000Y-64535000I0J250000D01*
G01*
G37*
G36*
G01*
X105710000Y-64535000D02*
X105710000Y-63735000D01*
G75*
G02*
X105960000Y-63485000I250000J0D01*
G01*
X106785000Y-63485000D01*
G75*
G02*
X107035000Y-63735000I0J-250000D01*
G01*
X107035000Y-64535000D01*
G75*
G02*
X106785000Y-64785000I-250000J0D01*
G01*
X105960000Y-64785000D01*
G75*
G02*
X105710000Y-64535000I0J250000D01*
G01*
G37*
%TD*%
%TO.C,C3*%
G36*
G01*
X111120074Y-49025000D02*
X110645074Y-49025000D01*
G75*
G02*
X110407574Y-48787500I0J237500D01*
G01*
X110407574Y-48212500D01*
G75*
G02*
X110645074Y-47975000I237500J0D01*
G01*
X111120074Y-47975000D01*
G75*
G02*
X111357574Y-48212500I0J-237500D01*
G01*
X111357574Y-48787500D01*
G75*
G02*
X111120074Y-49025000I-237500J0D01*
G01*
G37*
G36*
G01*
X111120074Y-47275000D02*
X110645074Y-47275000D01*
G75*
G02*
X110407574Y-47037500I0J237500D01*
G01*
X110407574Y-46462500D01*
G75*
G02*
X110645074Y-46225000I237500J0D01*
G01*
X111120074Y-46225000D01*
G75*
G02*
X111357574Y-46462500I0J-237500D01*
G01*
X111357574Y-47037500D01*
G75*
G02*
X111120074Y-47275000I-237500J0D01*
G01*
G37*
%TD*%
D11*
%TO.C,BreakoutConnector1*%
X152400000Y-66040000D03*
D23*
X152400000Y-63500000D03*
X152400000Y-60960000D03*
X152400000Y-58420000D03*
X152400000Y-55880000D03*
X152400000Y-53340000D03*
X152400000Y-50800000D03*
X152400000Y-48260000D03*
%TD*%
D15*
%TO.C,REF\u002A\u002A*%
X106680000Y-101600000D03*
%TD*%
%TO.C,C1*%
G36*
G01*
X150945000Y-87960000D02*
X150045000Y-87960000D01*
G75*
G02*
X149795000Y-87710000I0J250000D01*
G01*
X149795000Y-87060000D01*
G75*
G02*
X150045000Y-86810000I250000J0D01*
G01*
X150945000Y-86810000D01*
G75*
G02*
X151195000Y-87060000I0J-250000D01*
G01*
X151195000Y-87710000D01*
G75*
G02*
X150945000Y-87960000I-250000J0D01*
G01*
G37*
G36*
G01*
X150945000Y-85910000D02*
X150045000Y-85910000D01*
G75*
G02*
X149795000Y-85660000I0J250000D01*
G01*
X149795000Y-85010000D01*
G75*
G02*
X150045000Y-84760000I250000J0D01*
G01*
X150945000Y-84760000D01*
G75*
G02*
X151195000Y-85010000I0J-250000D01*
G01*
X151195000Y-85660000D01*
G75*
G02*
X150945000Y-85910000I-250000J0D01*
G01*
G37*
%TD*%
D24*
%TO.C,U1*%
X129645000Y-62065000D03*
D25*
X122660000Y-47115000D03*
X122660000Y-48115000D03*
X122660000Y-49115000D03*
X122660000Y-50115000D03*
X122660000Y-51115000D03*
X122660000Y-52115000D03*
X122660000Y-53115000D03*
X122660000Y-54115000D03*
X122660000Y-55115000D03*
X122660000Y-56115000D03*
X122660000Y-57115000D03*
X122660000Y-58115000D03*
X122660000Y-59115000D03*
X122660000Y-60115000D03*
X122660000Y-61115000D03*
X122660000Y-62115000D03*
X122660000Y-63115000D03*
X141500000Y-63115000D03*
X141500000Y-62115000D03*
X141500000Y-61115000D03*
X141500000Y-60115000D03*
X141500000Y-59115000D03*
X141500000Y-58115000D03*
X141500000Y-57115000D03*
X141500000Y-56115000D03*
X141500000Y-55115000D03*
X141500000Y-54115000D03*
X141500000Y-53115000D03*
X141500000Y-52115000D03*
X141500000Y-51115000D03*
X141500000Y-50115000D03*
X141500000Y-49115000D03*
X141500000Y-48115000D03*
X141500000Y-47115000D03*
%TD*%
D26*
%TO.C,J1*%
X156115000Y-77215000D03*
X156115000Y-73915000D03*
X157115000Y-77215000D03*
X157115000Y-73915000D03*
X158115000Y-77215000D03*
X158115000Y-73915000D03*
X159115000Y-77215000D03*
X159115000Y-73915000D03*
X160115000Y-77215000D03*
X160115000Y-73915000D03*
%TD*%
D27*
%TO.C,DC_Converter1*%
X141210000Y-79350000D03*
D28*
X143510000Y-73050000D03*
D27*
X143510000Y-79350000D03*
X145810000Y-79350000D03*
%TD*%
D29*
%TO.C,RESET_SW1*%
X113030000Y-51435000D03*
X113030000Y-57935000D03*
X108530000Y-51435000D03*
X108530000Y-57935000D03*
%TD*%
D30*
%TO.C,PwrIn1*%
X146685000Y-93345000D03*
X121285000Y-93345000D03*
%TD*%
M02*
