%TF.GenerationSoftware,KiCad,Pcbnew,(5.99.0-3294-g9c46e491e)*%
%TF.CreationDate,2020-11-17T05:13:20-05:00*%
%TF.ProjectId,mobile-tag,6d6f6269-6c65-42d7-9461-672e6b696361,rev?*%
%TF.SameCoordinates,Original*%
%TF.FileFunction,Copper,L1,Top*%
%TF.FilePolarity,Positive*%
%FSLAX46Y46*%
G04 Gerber Fmt 4.6, Leading zero omitted, Abs format (unit mm)*
G04 Created by KiCad (PCBNEW (5.99.0-3294-g9c46e491e)) date 2020-11-17 05:13:20*
%MOMM*%
%LPD*%
G01*
G04 APERTURE LIST*
%TA.AperFunction,ComponentPad*%
%ADD10R,1.700000X1.700000*%
%TD*%
%TA.AperFunction,ComponentPad*%
%ADD11C,1.700000*%
%TD*%
%TA.AperFunction,ComponentPad*%
%ADD12C,1.800000*%
%TD*%
%TA.AperFunction,ComponentPad*%
%ADD13C,1.500000*%
%TD*%
%TA.AperFunction,ComponentPad*%
%ADD14C,7.400000*%
%TD*%
%TA.AperFunction,SMDPad,CuDef*%
%ADD15R,1.300000X0.450000*%
%TD*%
%TA.AperFunction,ComponentPad*%
%ADD16O,1.800000X1.150000*%
%TD*%
%TA.AperFunction,ComponentPad*%
%ADD17O,2.000000X1.450000*%
%TD*%
%TA.AperFunction,SMDPad,CuDef*%
%ADD18R,0.800000X0.500000*%
%TD*%
%TA.AperFunction,SMDPad,CuDef*%
%ADD19R,0.800000X0.400000*%
%TD*%
%TA.AperFunction,SMDPad,CuDef*%
%ADD20R,1.800000X2.500000*%
%TD*%
%TA.AperFunction,ComponentPad*%
%ADD21O,1.700000X1.700000*%
%TD*%
%TA.AperFunction,SMDPad,CuDef*%
%ADD22R,2.540000X0.650000*%
%TD*%
%TA.AperFunction,SMDPad,CuDef*%
%ADD23R,0.500000X2.000000*%
%TD*%
%TA.AperFunction,SMDPad,CuDef*%
%ADD24R,1.500000X2.000000*%
%TD*%
%TA.AperFunction,SMDPad,CuDef*%
%ADD25R,3.800000X2.000000*%
%TD*%
%TA.AperFunction,ComponentPad*%
%ADD26C,2.000000*%
%TD*%
%TA.AperFunction,ComponentPad*%
%ADD27C,3.000000*%
%TD*%
%TA.AperFunction,ViaPad*%
%ADD28C,0.800000*%
%TD*%
%TA.AperFunction,Conductor*%
%ADD29C,0.508000*%
%TD*%
%TA.AperFunction,Conductor*%
%ADD30C,0.250000*%
%TD*%
G04 APERTURE END LIST*
D10*
%TO.P,Display1,1,SDA*%
%TO.N,SDA{slash}I2C*%
X125095000Y-69850000D03*
D11*
%TO.P,Display1,2,SCK*%
%TO.N,SCL{slash}I2c*%
X127635000Y-69850000D03*
%TO.P,Display1,3,SAD*%
%TO.N,Net-(Display1-Pad3)*%
X130175000Y-69850000D03*
%TO.P,Display1,4,RST*%
%TO.N,Net-(Display1-Pad4)*%
X132715000Y-69850000D03*
%TO.P,Display1,5,CS*%
%TO.N,Net-(Display1-Pad5)*%
X135255000Y-69850000D03*
%TO.P,Display1,6,3.3V*%
%TO.N,+3V3*%
X137795000Y-69850000D03*
%TO.P,Display1,7,VIN*%
%TO.N,Net-(Display1-Pad7)*%
X140335000Y-69850000D03*
%TO.P,Display1,8,GND*%
%TO.N,GND*%
X142875000Y-69850000D03*
%TD*%
%TO.P,D2,1,K*%
%TO.N,GND*%
%TA.AperFunction,SMDPad,CuDef*%
G36*
G01*
X103785000Y-77235000D02*
X103785000Y-76435000D01*
G75*
G02*
X104035000Y-76185000I250000J0D01*
G01*
X104860000Y-76185000D01*
G75*
G02*
X105110000Y-76435000I0J-250000D01*
G01*
X105110000Y-77235000D01*
G75*
G02*
X104860000Y-77485000I-250000J0D01*
G01*
X104035000Y-77485000D01*
G75*
G02*
X103785000Y-77235000I0J250000D01*
G01*
G37*
%TD.AperFunction*%
%TO.P,D2,2,A*%
%TO.N,Net-(D2-Pad2)*%
%TA.AperFunction,SMDPad,CuDef*%
G36*
G01*
X105710000Y-77235000D02*
X105710000Y-76435000D01*
G75*
G02*
X105960000Y-76185000I250000J0D01*
G01*
X106785000Y-76185000D01*
G75*
G02*
X107035000Y-76435000I0J-250000D01*
G01*
X107035000Y-77235000D01*
G75*
G02*
X106785000Y-77485000I-250000J0D01*
G01*
X105960000Y-77485000D01*
G75*
G02*
X105710000Y-77235000I0J250000D01*
G01*
G37*
%TD.AperFunction*%
%TD*%
D12*
%TO.P,Nav_Switch1,1,A*%
%TO.N,SW_UP*%
X112395000Y-83820000D03*
D13*
%TO.P,Nav_Switch1,2,B*%
%TO.N,SW_LEFT*%
X108695000Y-83820000D03*
D12*
%TO.P,Nav_Switch1,3,C*%
%TO.N,SW_DOWN*%
X105895000Y-83820000D03*
%TO.P,Nav_Switch1,4,Common*%
%TO.N,GND*%
X105895000Y-94120000D03*
D13*
%TO.P,Nav_Switch1,5,D*%
%TO.N,SW_RIGHT*%
X108695000Y-94120000D03*
D12*
%TO.P,Nav_Switch1,6,Center*%
%TO.N,SW_SELECT*%
X112395000Y-94120000D03*
%TD*%
%TO.P,D3,1,K*%
%TO.N,GND*%
%TA.AperFunction,SMDPad,CuDef*%
G36*
G01*
X103785000Y-71520000D02*
X103785000Y-70720000D01*
G75*
G02*
X104035000Y-70470000I250000J0D01*
G01*
X104860000Y-70470000D01*
G75*
G02*
X105110000Y-70720000I0J-250000D01*
G01*
X105110000Y-71520000D01*
G75*
G02*
X104860000Y-71770000I-250000J0D01*
G01*
X104035000Y-71770000D01*
G75*
G02*
X103785000Y-71520000I0J250000D01*
G01*
G37*
%TD.AperFunction*%
%TO.P,D3,2,A*%
%TO.N,Net-(D3-Pad2)*%
%TA.AperFunction,SMDPad,CuDef*%
G36*
G01*
X105710000Y-71520000D02*
X105710000Y-70720000D01*
G75*
G02*
X105960000Y-70470000I250000J0D01*
G01*
X106785000Y-70470000D01*
G75*
G02*
X107035000Y-70720000I0J-250000D01*
G01*
X107035000Y-71520000D01*
G75*
G02*
X106785000Y-71770000I-250000J0D01*
G01*
X105960000Y-71770000D01*
G75*
G02*
X105710000Y-71520000I0J250000D01*
G01*
G37*
%TD.AperFunction*%
%TD*%
D14*
%TO.P,REF\u002A\u002A,2*%
%TO.N,N/C*%
X157480000Y-101600000D03*
%TD*%
%TO.P,,3*%
%TO.N,N/C*%
X156845000Y-41275000D03*
%TD*%
%TO.P,R2,1*%
%TO.N,Net-(D3-Pad2)*%
%TA.AperFunction,SMDPad,CuDef*%
G36*
G01*
X109560000Y-71744999D02*
X109560000Y-70495001D01*
G75*
G02*
X109810001Y-70245000I250001J0D01*
G01*
X110734999Y-70245000D01*
G75*
G02*
X110985000Y-70495001I0J-250001D01*
G01*
X110985000Y-71744999D01*
G75*
G02*
X110734999Y-71995000I-250001J0D01*
G01*
X109810001Y-71995000D01*
G75*
G02*
X109560000Y-71744999I0J250001D01*
G01*
G37*
%TD.AperFunction*%
%TO.P,R2,2*%
%TO.N,LED2*%
%TA.AperFunction,SMDPad,CuDef*%
G36*
G01*
X112535000Y-71744999D02*
X112535000Y-70495001D01*
G75*
G02*
X112785001Y-70245000I250001J0D01*
G01*
X113709999Y-70245000D01*
G75*
G02*
X113960000Y-70495001I0J-250001D01*
G01*
X113960000Y-71744999D01*
G75*
G02*
X113709999Y-71995000I-250001J0D01*
G01*
X112785001Y-71995000D01*
G75*
G02*
X112535000Y-71744999I0J250001D01*
G01*
G37*
%TD.AperFunction*%
%TD*%
%TO.P,R4,1*%
%TO.N,+3V3*%
%TA.AperFunction,SMDPad,CuDef*%
G36*
G01*
X120056000Y-84615001D02*
X120056000Y-85864999D01*
G75*
G02*
X119805999Y-86115000I-250001J0D01*
G01*
X118881001Y-86115000D01*
G75*
G02*
X118631000Y-85864999I0J250001D01*
G01*
X118631000Y-84615001D01*
G75*
G02*
X118881001Y-84365000I250001J0D01*
G01*
X119805999Y-84365000D01*
G75*
G02*
X120056000Y-84615001I0J-250001D01*
G01*
G37*
%TD.AperFunction*%
%TO.P,R4,2*%
%TO.N,SW_SELECT*%
%TA.AperFunction,SMDPad,CuDef*%
G36*
G01*
X117081000Y-84615001D02*
X117081000Y-85864999D01*
G75*
G02*
X116830999Y-86115000I-250001J0D01*
G01*
X115906001Y-86115000D01*
G75*
G02*
X115656000Y-85864999I0J250001D01*
G01*
X115656000Y-84615001D01*
G75*
G02*
X115906001Y-84365000I250001J0D01*
G01*
X116830999Y-84365000D01*
G75*
G02*
X117081000Y-84615001I0J-250001D01*
G01*
G37*
%TD.AperFunction*%
%TD*%
%TO.P,,4*%
%TO.N,N/C*%
X107315000Y-41275000D03*
%TD*%
D15*
%TO.P,J2,1,VBUS*%
%TO.N,+5V*%
X155153780Y-88293021D03*
%TO.P,J2,2,D-*%
%TO.N,Net-(J2-Pad2)*%
X155153780Y-87643021D03*
%TO.P,J2,3,D+*%
%TO.N,Net-(J2-Pad3)*%
X155153780Y-86993021D03*
%TO.P,J2,4,ID*%
%TO.N,Net-(J2-Pad4)*%
X155153780Y-86343021D03*
%TO.P,J2,5,GND*%
%TO.N,GND*%
X155153780Y-85693021D03*
D16*
%TO.P,J2,6,Shield*%
%TO.N,Net-(J2-Pad6)*%
X159003780Y-83118021D03*
D17*
X155203780Y-90718021D03*
D16*
X159003780Y-90868021D03*
D17*
X155203780Y-83268021D03*
%TD*%
D18*
%TO.P,RN1,1,R1.1*%
%TO.N,SW_DOWN*%
X117374000Y-78452000D03*
D19*
%TO.P,RN1,2,R2.1*%
%TO.N,SW_LEFT*%
X117374000Y-79252000D03*
%TO.P,RN1,3,R3.1*%
%TO.N,SW_UP*%
X117374000Y-80052000D03*
D18*
%TO.P,RN1,4,R4.1*%
%TO.N,SW_RIGHT*%
X117374000Y-80852000D03*
%TO.P,RN1,5,R4.2*%
%TO.N,+3V3*%
X119174000Y-80852000D03*
D19*
%TO.P,RN1,6,R3.2*%
X119174000Y-80052000D03*
%TO.P,RN1,7,R2.2*%
X119174000Y-79252000D03*
D18*
%TO.P,RN1,8,R1.2*%
X119174000Y-78452000D03*
%TD*%
D20*
%TO.P,D1,1,K*%
%TO.N,+3V3*%
X124460000Y-76740000D03*
%TO.P,D1,2,A*%
%TO.N,Net-(D1-Pad2)*%
X124460000Y-80740000D03*
%TD*%
%TO.P,R3,1*%
%TO.N,Net-(D4-Pad2)*%
%TA.AperFunction,SMDPad,CuDef*%
G36*
G01*
X109560000Y-64759999D02*
X109560000Y-63510001D01*
G75*
G02*
X109810001Y-63260000I250001J0D01*
G01*
X110734999Y-63260000D01*
G75*
G02*
X110985000Y-63510001I0J-250001D01*
G01*
X110985000Y-64759999D01*
G75*
G02*
X110734999Y-65010000I-250001J0D01*
G01*
X109810001Y-65010000D01*
G75*
G02*
X109560000Y-64759999I0J250001D01*
G01*
G37*
%TD.AperFunction*%
%TO.P,R3,2*%
%TO.N,LED3*%
%TA.AperFunction,SMDPad,CuDef*%
G36*
G01*
X112535000Y-64759999D02*
X112535000Y-63510001D01*
G75*
G02*
X112785001Y-63260000I250001J0D01*
G01*
X113709999Y-63260000D01*
G75*
G02*
X113960000Y-63510001I0J-250001D01*
G01*
X113960000Y-64759999D01*
G75*
G02*
X113709999Y-65010000I-250001J0D01*
G01*
X112785001Y-65010000D01*
G75*
G02*
X112535000Y-64759999I0J250001D01*
G01*
G37*
%TD.AperFunction*%
%TD*%
%TO.P,C2,1*%
%TO.N,+3V3*%
%TA.AperFunction,SMDPad,CuDef*%
G36*
G01*
X132265000Y-75235000D02*
X133165000Y-75235000D01*
G75*
G02*
X133415000Y-75485000I0J-250000D01*
G01*
X133415000Y-76135000D01*
G75*
G02*
X133165000Y-76385000I-250000J0D01*
G01*
X132265000Y-76385000D01*
G75*
G02*
X132015000Y-76135000I0J250000D01*
G01*
X132015000Y-75485000D01*
G75*
G02*
X132265000Y-75235000I250000J0D01*
G01*
G37*
%TD.AperFunction*%
%TO.P,C2,2*%
%TO.N,GND*%
%TA.AperFunction,SMDPad,CuDef*%
G36*
G01*
X132265000Y-77285000D02*
X133165000Y-77285000D01*
G75*
G02*
X133415000Y-77535000I0J-250000D01*
G01*
X133415000Y-78185000D01*
G75*
G02*
X133165000Y-78435000I-250000J0D01*
G01*
X132265000Y-78435000D01*
G75*
G02*
X132015000Y-78185000I0J250000D01*
G01*
X132015000Y-77535000D01*
G75*
G02*
X132265000Y-77285000I250000J0D01*
G01*
G37*
%TD.AperFunction*%
%TD*%
%TO.P,R1,1*%
%TO.N,Net-(D2-Pad2)*%
%TA.AperFunction,SMDPad,CuDef*%
G36*
G01*
X109560000Y-77459999D02*
X109560000Y-76210001D01*
G75*
G02*
X109810001Y-75960000I250001J0D01*
G01*
X110734999Y-75960000D01*
G75*
G02*
X110985000Y-76210001I0J-250001D01*
G01*
X110985000Y-77459999D01*
G75*
G02*
X110734999Y-77710000I-250001J0D01*
G01*
X109810001Y-77710000D01*
G75*
G02*
X109560000Y-77459999I0J250001D01*
G01*
G37*
%TD.AperFunction*%
%TO.P,R1,2*%
%TO.N,LED1*%
%TA.AperFunction,SMDPad,CuDef*%
G36*
G01*
X112535000Y-77459999D02*
X112535000Y-76210001D01*
G75*
G02*
X112785001Y-75960000I250001J0D01*
G01*
X113709999Y-75960000D01*
G75*
G02*
X113960000Y-76210001I0J-250001D01*
G01*
X113960000Y-77459999D01*
G75*
G02*
X113709999Y-77710000I-250001J0D01*
G01*
X112785001Y-77710000D01*
G75*
G02*
X112535000Y-77459999I0J250001D01*
G01*
G37*
%TD.AperFunction*%
%TD*%
%TO.P,D4,1,K*%
%TO.N,GND*%
%TA.AperFunction,SMDPad,CuDef*%
G36*
G01*
X103785000Y-64535000D02*
X103785000Y-63735000D01*
G75*
G02*
X104035000Y-63485000I250000J0D01*
G01*
X104860000Y-63485000D01*
G75*
G02*
X105110000Y-63735000I0J-250000D01*
G01*
X105110000Y-64535000D01*
G75*
G02*
X104860000Y-64785000I-250000J0D01*
G01*
X104035000Y-64785000D01*
G75*
G02*
X103785000Y-64535000I0J250000D01*
G01*
G37*
%TD.AperFunction*%
%TO.P,D4,2,A*%
%TO.N,Net-(D4-Pad2)*%
%TA.AperFunction,SMDPad,CuDef*%
G36*
G01*
X105710000Y-64535000D02*
X105710000Y-63735000D01*
G75*
G02*
X105960000Y-63485000I250000J0D01*
G01*
X106785000Y-63485000D01*
G75*
G02*
X107035000Y-63735000I0J-250000D01*
G01*
X107035000Y-64535000D01*
G75*
G02*
X106785000Y-64785000I-250000J0D01*
G01*
X105960000Y-64785000D01*
G75*
G02*
X105710000Y-64535000I0J250000D01*
G01*
G37*
%TD.AperFunction*%
%TD*%
%TO.P,C3,1*%
%TO.N,+3V3*%
%TA.AperFunction,SMDPad,CuDef*%
G36*
G01*
X111120074Y-49025000D02*
X110645074Y-49025000D01*
G75*
G02*
X110407574Y-48787500I0J237500D01*
G01*
X110407574Y-48212500D01*
G75*
G02*
X110645074Y-47975000I237500J0D01*
G01*
X111120074Y-47975000D01*
G75*
G02*
X111357574Y-48212500I0J-237500D01*
G01*
X111357574Y-48787500D01*
G75*
G02*
X111120074Y-49025000I-237500J0D01*
G01*
G37*
%TD.AperFunction*%
%TO.P,C3,2*%
%TO.N,GND*%
%TA.AperFunction,SMDPad,CuDef*%
G36*
G01*
X111120074Y-47275000D02*
X110645074Y-47275000D01*
G75*
G02*
X110407574Y-47037500I0J237500D01*
G01*
X110407574Y-46462500D01*
G75*
G02*
X110645074Y-46225000I237500J0D01*
G01*
X111120074Y-46225000D01*
G75*
G02*
X111357574Y-46462500I0J-237500D01*
G01*
X111357574Y-47037500D01*
G75*
G02*
X111120074Y-47275000I-237500J0D01*
G01*
G37*
%TD.AperFunction*%
%TD*%
D10*
%TO.P,BreakoutConnector1,1,Pin_1*%
%TO.N,Net-(BreakoutConnector1-Pad1)*%
X152400000Y-66040000D03*
D21*
%TO.P,BreakoutConnector1,2,Pin_2*%
%TO.N,Net-(BreakoutConnector1-Pad2)*%
X152400000Y-63500000D03*
%TO.P,BreakoutConnector1,3,Pin_3*%
%TO.N,Net-(BreakoutConnector1-Pad3)*%
X152400000Y-60960000D03*
%TO.P,BreakoutConnector1,4,Pin_4*%
%TO.N,Net-(BreakoutConnector1-Pad4)*%
X152400000Y-58420000D03*
%TO.P,BreakoutConnector1,5,Pin_5*%
%TO.N,Net-(BreakoutConnector1-Pad5)*%
X152400000Y-55880000D03*
%TO.P,BreakoutConnector1,6,Pin_6*%
%TO.N,Net-(BreakoutConnector1-Pad6)*%
X152400000Y-53340000D03*
%TO.P,BreakoutConnector1,7,Pin_7*%
%TO.N,+5V*%
X152400000Y-50800000D03*
%TO.P,BreakoutConnector1,8,Pin_8*%
%TO.N,GND*%
X152400000Y-48260000D03*
%TD*%
D14*
%TO.P,REF\u002A\u002A,1*%
%TO.N,N/C*%
X106680000Y-101600000D03*
%TD*%
%TO.P,C1,1*%
%TO.N,+5V*%
%TA.AperFunction,SMDPad,CuDef*%
G36*
G01*
X150945000Y-87960000D02*
X150045000Y-87960000D01*
G75*
G02*
X149795000Y-87710000I0J250000D01*
G01*
X149795000Y-87060000D01*
G75*
G02*
X150045000Y-86810000I250000J0D01*
G01*
X150945000Y-86810000D01*
G75*
G02*
X151195000Y-87060000I0J-250000D01*
G01*
X151195000Y-87710000D01*
G75*
G02*
X150945000Y-87960000I-250000J0D01*
G01*
G37*
%TD.AperFunction*%
%TO.P,C1,2*%
%TO.N,GND*%
%TA.AperFunction,SMDPad,CuDef*%
G36*
G01*
X150945000Y-85910000D02*
X150045000Y-85910000D01*
G75*
G02*
X149795000Y-85660000I0J250000D01*
G01*
X149795000Y-85010000D01*
G75*
G02*
X150045000Y-84760000I250000J0D01*
G01*
X150945000Y-84760000D01*
G75*
G02*
X151195000Y-85010000I0J-250000D01*
G01*
X151195000Y-85660000D01*
G75*
G02*
X150945000Y-85910000I-250000J0D01*
G01*
G37*
%TD.AperFunction*%
%TD*%
D22*
%TO.P,U1,1,GND*%
%TO.N,GND*%
X122660000Y-47115000D03*
%TO.P,U1,2,SWD_CLK*%
%TO.N,SWD_CLK*%
X122660000Y-48115000D03*
%TO.P,U1,3,SWD_DIO*%
%TO.N,SWD_DIO*%
X122660000Y-49115000D03*
%TO.P,U1,4,GPIO_10*%
%TO.N,LED3*%
X122660000Y-50115000D03*
%TO.P,U1,5,GPIO_9*%
%TO.N,LED2*%
X122660000Y-51115000D03*
%TO.P,U1,6,GPIO_12*%
%TO.N,LED1*%
X122660000Y-52115000D03*
%TO.P,U1,7,GPIO_14*%
%TO.N,SW_DOWN*%
X122660000Y-53115000D03*
%TO.P,U1,8,GPIO_22*%
%TO.N,SW_LEFT*%
X122660000Y-54115000D03*
%TO.P,U1,9,GPIO_31*%
%TO.N,SW_UP*%
X122660000Y-55115000D03*
%TO.P,U1,10,GPIO_30*%
%TO.N,SW_RIGHT*%
X122660000Y-56115000D03*
%TO.P,U1,11,GND*%
%TO.N,GND*%
X122660000Y-57115000D03*
%TO.P,U1,12,VCC*%
%TO.N,+3V3*%
X122660000Y-58115000D03*
%TO.P,U1,13,GPIO_27*%
%TO.N,Net-(U1-Pad13)*%
X122660000Y-59115000D03*
%TO.P,U1,14,I2C_SDA*%
%TO.N,SDA{slash}I2C*%
X122660000Y-60115000D03*
%TO.P,U1,15,I2C_SCL*%
%TO.N,SCL{slash}I2c*%
X122660000Y-61115000D03*
%TO.P,U1,16,GPIO_23*%
%TO.N,Net-(U1-Pad16)*%
X122660000Y-62115000D03*
%TO.P,U1,17,GPIO_13*%
%TO.N,SW_SELECT*%
X122660000Y-63115000D03*
%TO.P,U1,18,UART_RX*%
%TO.N,Net-(BreakoutConnector1-Pad1)*%
X141500000Y-63115000D03*
%TO.P,U1,19,READY*%
%TO.N,Net-(U1-Pad19)*%
X141500000Y-62115000D03*
%TO.P,U1,20,UART_TX*%
%TO.N,Net-(BreakoutConnector1-Pad2)*%
X141500000Y-61115000D03*
%TO.P,U1,21,GPIO_1*%
%TO.N,Net-(U1-Pad21)*%
X141500000Y-60115000D03*
%TO.P,U1,22,GPIO_0*%
%TO.N,Net-(U1-Pad22)*%
X141500000Y-59115000D03*
%TO.P,U1,23,GPIO_15*%
%TO.N,Net-(U1-Pad23)*%
X141500000Y-58115000D03*
%TO.P,U1,24,GND*%
%TO.N,GND*%
X141500000Y-57115000D03*
%TO.P,U1,25,GPIO_8*%
%TO.N,Net-(U1-Pad25)*%
X141500000Y-56115000D03*
%TO.P,U1,26,SPIS_MISO*%
%TO.N,Net-(BreakoutConnector1-Pad3)*%
X141500000Y-55115000D03*
%TO.P,U1,27,SPIS_MOSI*%
%TO.N,Net-(BreakoutConnector1-Pad4)*%
X141500000Y-54115000D03*
%TO.P,U1,28,SPIS_CLK*%
%TO.N,Net-(BreakoutConnector1-Pad5)*%
X141500000Y-53115000D03*
%TO.P,U1,29,~SPIS_CS*%
%TO.N,Net-(BreakoutConnector1-Pad6)*%
X141500000Y-52115000D03*
%TO.P,U1,30,GPIO_3*%
%TO.N,Net-(U1-Pad30)*%
X141500000Y-51115000D03*
%TO.P,U1,31,GPIO_2*%
%TO.N,Net-(U1-Pad31)*%
X141500000Y-50115000D03*
%TO.P,U1,32,BT_WAKE_UP*%
%TO.N,Net-(U1-Pad32)*%
X141500000Y-49115000D03*
%TO.P,U1,33,~RESET*%
%TO.N,~RESET*%
X141500000Y-48115000D03*
%TO.P,U1,34,GND*%
%TO.N,GND*%
X141500000Y-47115000D03*
%TD*%
D23*
%TO.P,J1,1,VRef*%
%TO.N,+3V3*%
X156115000Y-77215000D03*
%TO.P,J1,2,SWIO*%
%TO.N,Net-(J1-Pad2)*%
X156115000Y-73915000D03*
%TO.P,J1,3,GND*%
%TO.N,Net-(J1-Pad3)*%
X157115000Y-77215000D03*
%TO.P,J1,4,CLK*%
%TO.N,SWD_CLK*%
X157115000Y-73915000D03*
%TO.P,J1,5,GND*%
%TO.N,Net-(J1-Pad3)*%
X158115000Y-77215000D03*
%TO.P,J1,6,SWO*%
%TO.N,SWD_DIO*%
X158115000Y-73915000D03*
%TO.P,J1,7,KEY*%
%TO.N,Net-(J1-Pad7)*%
X159115000Y-77215000D03*
%TO.P,J1,8,NC*%
%TO.N,Net-(J1-Pad8)*%
X159115000Y-73915000D03*
%TO.P,J1,9,GND*%
%TO.N,GND*%
X160115000Y-77215000D03*
%TO.P,J1,10,~RST*%
%TO.N,~RESET*%
X160115000Y-73915000D03*
%TD*%
D24*
%TO.P,DC_Converter1,1,GND*%
%TO.N,GND*%
X141210000Y-79350000D03*
D25*
%TO.P,DC_Converter1,2,VO*%
%TO.N,+3V3*%
X143510000Y-73050000D03*
D24*
X143510000Y-79350000D03*
%TO.P,DC_Converter1,3,VI*%
%TO.N,+5V*%
X145810000Y-79350000D03*
%TD*%
D26*
%TO.P,RESET_SW1,1,1*%
%TO.N,~RESET*%
X113030000Y-51435000D03*
X113030000Y-57935000D03*
%TO.P,RESET_SW1,2,2*%
%TO.N,GND*%
X108530000Y-51435000D03*
X108530000Y-57935000D03*
%TD*%
D27*
%TO.P,PwrIn1,1,On*%
%TO.N,Net-(D1-Pad2)*%
X146685000Y-93345000D03*
X121285000Y-93345000D03*
%TD*%
D28*
%TO.N,+5V*%
X149225000Y-79375000D03*
%TO.N,+3V3*%
X115570000Y-48260000D03*
X133350000Y-48260000D03*
%TO.N,SW_SELECT*%
X118110000Y-63500000D03*
%TO.N,GND*%
X150495000Y-81915000D03*
X140970000Y-81915000D03*
X141605000Y-76835000D03*
X137160000Y-57150000D03*
X127635000Y-57150000D03*
%TO.N,SW_RIGHT*%
X118745000Y-56515000D03*
%TO.N,SW_DOWN*%
X117348000Y-53340000D03*
%TO.N,SW_LEFT*%
X118872000Y-53975000D03*
%TO.N,SW_UP*%
X118872000Y-55245000D03*
%TO.N,SWD_CLK*%
X157115000Y-59420000D03*
X130175000Y-49530000D03*
%TO.N,SWD_DIO*%
X130175000Y-51435000D03*
X158115000Y-57785000D03*
%TO.N,SDA{slash}I2C*%
X125095000Y-66675000D03*
X125984000Y-59944000D03*
%TO.N,~RESET*%
X139432870Y-48210870D03*
%TD*%
D29*
%TO.N,+5V*%
X151405000Y-88295000D02*
X150495000Y-87385000D01*
X145810000Y-79350000D02*
X145810000Y-82700000D01*
X155151801Y-88295000D02*
X151405000Y-88295000D01*
D30*
X149225000Y-79375000D02*
X145835000Y-79375000D01*
D29*
X145810000Y-82700000D02*
X150495000Y-87385000D01*
D30*
%TO.N,+3V3*%
X119343500Y-82276500D02*
X119356000Y-82264000D01*
X119356000Y-78264000D02*
X122936000Y-78264000D01*
X119174000Y-79252000D02*
X119174000Y-78452000D01*
X119174000Y-82107000D02*
X119174000Y-80852000D01*
D29*
X133350000Y-48260000D02*
X133350000Y-52705000D01*
X140818000Y-73050000D02*
X142240000Y-73050000D01*
X133350000Y-52705000D02*
X128905000Y-57150000D01*
X128905000Y-57150000D02*
X127940000Y-58115000D01*
D30*
X115330000Y-48500000D02*
X115570000Y-48260000D01*
D29*
X137795000Y-69850000D02*
X137795000Y-64770000D01*
X137795000Y-64770000D02*
X130175000Y-57150000D01*
X130175000Y-57150000D02*
X128905000Y-57150000D01*
D30*
X119174000Y-80852000D02*
X119174000Y-80052000D01*
X119343500Y-82276500D02*
X119174000Y-82107000D01*
D29*
X144400000Y-77215000D02*
X156115000Y-77215000D01*
X137795000Y-69850000D02*
X140995000Y-73050000D01*
D30*
X119343500Y-85240000D02*
X119343500Y-82276500D01*
X119174000Y-80052000D02*
X119174000Y-79252000D01*
X122936000Y-78264000D02*
X124460000Y-76740000D01*
D29*
X132715000Y-75810000D02*
X138058000Y-75810000D01*
X138058000Y-75810000D02*
X140818000Y-73050000D01*
X127940000Y-58115000D02*
X122936000Y-58115000D01*
X143510000Y-79350000D02*
X143510000Y-73050000D01*
X143510000Y-78105000D02*
X144400000Y-77215000D01*
X125635000Y-75565000D02*
X132470000Y-75565000D01*
X124460000Y-76740000D02*
X125635000Y-75565000D01*
X140995000Y-73050000D02*
X143510000Y-73050000D01*
X110882574Y-48500000D02*
X115330000Y-48500000D01*
D30*
%TO.N,SW_SELECT*%
X118618000Y-62992000D02*
X122537000Y-62992000D01*
X115734000Y-90781000D02*
X115734000Y-85874500D01*
X118110000Y-63500000D02*
X118618000Y-62992000D01*
X112395000Y-94120000D02*
X115734000Y-90781000D01*
X115734000Y-85874500D02*
X116368500Y-85240000D01*
D29*
%TO.N,GND*%
X153669990Y-84419990D02*
X154943021Y-85693021D01*
X122660000Y-47115000D02*
X110744000Y-47115000D01*
X108530000Y-51435000D02*
X108530000Y-49102574D01*
X140970000Y-81915000D02*
X140970000Y-79590000D01*
X137160000Y-57150000D02*
X137160000Y-61976000D01*
X160115000Y-77215000D02*
X160115000Y-78282202D01*
X151410010Y-84419990D02*
X150495000Y-85335000D01*
X122660000Y-47115000D02*
X134000002Y-47115000D01*
X104447500Y-60017500D02*
X104447500Y-64135000D01*
X104140000Y-92365000D02*
X104140000Y-77142500D01*
X106530000Y-57935000D02*
X104447500Y-60017500D01*
X139321000Y-47115000D02*
X140319998Y-47115000D01*
X137160000Y-49276000D02*
X139321000Y-47115000D01*
X108530000Y-49102574D02*
X110882574Y-46750000D01*
D30*
X127600000Y-57115000D02*
X127635000Y-57150000D01*
D29*
X153669990Y-84419990D02*
X152491990Y-84419990D01*
X157117202Y-81280000D02*
X154305000Y-81280000D01*
X137160000Y-49276000D02*
X137160000Y-56896000D01*
X152491990Y-84419990D02*
X151410010Y-84419990D01*
X139720000Y-77860000D02*
X141210000Y-79350000D01*
X104447500Y-64135000D02*
X104447500Y-71120000D01*
X104447500Y-76835000D02*
X104447500Y-71120000D01*
D30*
X140319998Y-47115000D02*
X151255000Y-47115000D01*
D29*
X142875000Y-67691000D02*
X142875000Y-69850000D01*
X108530000Y-57935000D02*
X106530000Y-57935000D01*
X123444000Y-57115000D02*
X127600000Y-57115000D01*
X137160000Y-57150000D02*
X141465000Y-57150000D01*
X152491990Y-83093010D02*
X152491990Y-84419990D01*
X141210000Y-77230000D02*
X141605000Y-76835000D01*
X134000002Y-47115000D02*
X137160000Y-49276000D01*
X141210000Y-79350000D02*
X141210000Y-77230000D01*
D30*
X151255000Y-47115000D02*
X152400000Y-48260000D01*
D29*
X108530000Y-51435000D02*
X108530000Y-57935000D01*
X137160000Y-61976000D02*
X142875000Y-67691000D01*
X105895000Y-94120000D02*
X104140000Y-92365000D01*
X154305000Y-81280000D02*
X152491990Y-83093010D01*
X150495000Y-85335000D02*
X150495000Y-81915000D01*
X160115000Y-78282202D02*
X157117202Y-81280000D01*
X132715000Y-77860000D02*
X139720000Y-77860000D01*
D30*
%TO.N,SW_RIGHT*%
X108695000Y-94120000D02*
X113702000Y-89113000D01*
X113702000Y-89113000D02*
X113702000Y-84918000D01*
X113702000Y-84918000D02*
X117258000Y-80668000D01*
X119145000Y-56115000D02*
X122660000Y-56115000D01*
X118745000Y-56515000D02*
X119145000Y-56115000D01*
%TO.N,SW_DOWN*%
X111333000Y-78382000D02*
X117258000Y-78382000D01*
X117573000Y-53115000D02*
X117348000Y-53340000D01*
X122660000Y-53115000D02*
X117573000Y-53115000D01*
X105895000Y-83820000D02*
X111333000Y-78382000D01*
%TO.N,SW_LEFT*%
X122660000Y-54115000D02*
X119012000Y-54115000D01*
X119012000Y-54115000D02*
X118872000Y-53975000D01*
X108695000Y-83820000D02*
X113371000Y-79144000D01*
X113371000Y-79144000D02*
X117004000Y-79144000D01*
X117004000Y-79144000D02*
X117258000Y-79398000D01*
%TO.N,SW_UP*%
X112395000Y-83820000D02*
X116309000Y-79906000D01*
X122660000Y-55115000D02*
X119002000Y-55115000D01*
X119002000Y-55115000D02*
X118872000Y-55245000D01*
X117004000Y-79906000D02*
X117258000Y-80160000D01*
X116309000Y-79906000D02*
X117004000Y-79906000D01*
%TO.N,SWD_CLK*%
X157115000Y-73915000D02*
X157115000Y-59420000D01*
X157115000Y-59420000D02*
X157115000Y-59325000D01*
X128760000Y-48115000D02*
X130175000Y-49530000D01*
X122428000Y-48115000D02*
X128760000Y-48115000D01*
%TO.N,SWD_DIO*%
X158115000Y-73915000D02*
X158115000Y-57785000D01*
X122936000Y-49115000D02*
X127855000Y-49115000D01*
X127855000Y-49115000D02*
X130175000Y-51435000D01*
%TO.N,LED3*%
X114355001Y-63027499D02*
X114355001Y-50744999D01*
X114985000Y-50115000D02*
X122936000Y-50115000D01*
X114355001Y-50744999D02*
X114985000Y-50115000D01*
X113247500Y-64135000D02*
X114355001Y-63027499D01*
%TO.N,LED2*%
X114805011Y-69562489D02*
X114805011Y-51564989D01*
X115255000Y-51115000D02*
X122428000Y-51115000D01*
X114805011Y-51564989D02*
X115255000Y-51115000D01*
X113247500Y-71120000D02*
X114805011Y-69562489D01*
%TO.N,LED1*%
X115255020Y-74827480D02*
X115255020Y-53019980D01*
X113247500Y-76835000D02*
X115255020Y-74827480D01*
X115255020Y-53019980D02*
X116160000Y-52115000D01*
X122660000Y-52115000D02*
X116160000Y-52115000D01*
%TO.N,SDA{slash}I2C*%
X125095000Y-69850000D02*
X125095000Y-66675000D01*
X125984000Y-59944000D02*
X122831000Y-59944000D01*
%TO.N,SCL{slash}I2c*%
X127635000Y-69850000D02*
X127635000Y-62369998D01*
X126380002Y-61115000D02*
X123444000Y-61115000D01*
X127635000Y-62369998D02*
X126380002Y-61115000D01*
%TO.N,Net-(BreakoutConnector1-Pad1)*%
X149475000Y-63115000D02*
X152400000Y-66040000D01*
X142240000Y-63115000D02*
X149475000Y-63115000D01*
%TO.N,Net-(BreakoutConnector1-Pad2)*%
X142240000Y-61115000D02*
X150015000Y-61115000D01*
X150015000Y-61115000D02*
X152400000Y-63500000D01*
%TO.N,Net-(BreakoutConnector1-Pad3)*%
X146555000Y-55115000D02*
X152400000Y-60960000D01*
X142748000Y-55115000D02*
X146555000Y-55115000D01*
%TO.N,Net-(BreakoutConnector1-Pad4)*%
X142240000Y-54115000D02*
X148095000Y-54115000D01*
X148095000Y-54115000D02*
X152400000Y-58420000D01*
%TO.N,Net-(BreakoutConnector1-Pad5)*%
X149635000Y-53115000D02*
X152400000Y-55880000D01*
X142240000Y-53115000D02*
X149635000Y-53115000D01*
%TO.N,Net-(BreakoutConnector1-Pad6)*%
X151175000Y-52115000D02*
X152400000Y-53340000D01*
X142240000Y-52115000D02*
X151175000Y-52115000D01*
%TO.N,~RESET*%
X142240000Y-48115000D02*
X150515998Y-48115000D01*
X152869002Y-49530000D02*
X160115000Y-56775998D01*
X139337000Y-48115000D02*
X139432870Y-48210870D01*
X151930998Y-49530000D02*
X152869002Y-49530000D01*
X150515998Y-48115000D02*
X151930998Y-49530000D01*
X141500000Y-48115000D02*
X139337000Y-48115000D01*
X160115000Y-56775998D02*
X160115000Y-73915000D01*
%TO.N,Net-(D2-Pad2)*%
X106372500Y-76835000D02*
X110272500Y-76835000D01*
%TO.N,Net-(D3-Pad2)*%
X106372500Y-71120000D02*
X110272500Y-71120000D01*
%TO.N,Net-(D4-Pad2)*%
X106372500Y-64135000D02*
X110272500Y-64135000D01*
%TO.N,Net-(J1-Pad3)*%
X158115000Y-77215000D02*
X157115000Y-77215000D01*
%TO.N,Net-(J2-Pad6)*%
X155145000Y-90870000D02*
X159001801Y-90870000D01*
X158795000Y-90728047D02*
X158795000Y-83120000D01*
X158795000Y-83257995D02*
X158795000Y-90870000D01*
X155145000Y-83120000D02*
X159001801Y-83120000D01*
D29*
%TO.N,Net-(D1-Pad2)*%
X121285000Y-82550000D02*
X121285000Y-93345000D01*
X124460000Y-80740000D02*
X123095000Y-80740000D01*
X121285000Y-93345000D02*
X146685000Y-93345000D01*
X123095000Y-80740000D02*
X121285000Y-82550000D01*
%TD*%
M02*
