%TF.GenerationSoftware,KiCad,Pcbnew,(5.99.0-3294-g9c46e491e)*%
%TF.CreationDate,2020-11-17T05:13:20-05:00*%
%TF.ProjectId,mobile-tag,6d6f6269-6c65-42d7-9461-672e6b696361,rev?*%
%TF.SameCoordinates,Original*%
%TF.FileFunction,Soldermask,Bot*%
%TF.FilePolarity,Negative*%
%FSLAX46Y46*%
G04 Gerber Fmt 4.6, Leading zero omitted, Abs format (unit mm)*
G04 Created by KiCad (PCBNEW (5.99.0-3294-g9c46e491e)) date 2020-11-17 05:13:20*
%MOMM*%
%LPD*%
G01*
G04 APERTURE LIST*
%ADD10C,2.700000*%
%ADD11R,1.700000X1.700000*%
%ADD12C,1.700000*%
%ADD13C,1.800000*%
%ADD14C,1.500000*%
%ADD15C,7.400000*%
%ADD16O,0.800000X0.800000*%
%ADD17O,1.800000X1.150000*%
%ADD18O,2.000000X1.450000*%
%ADD19O,1.700000X1.700000*%
%ADD20C,1.000000*%
%ADD21C,2.000000*%
%ADD22C,3.000000*%
%ADD23C,20.000000*%
G04 APERTURE END LIST*
D10*
%TO.C,Display1*%
X148463000Y-99314000D03*
X148463000Y-69850000D03*
X119507000Y-69850000D03*
X119507000Y-99314000D03*
D11*
X125095000Y-69850000D03*
D12*
X127635000Y-69850000D03*
X130175000Y-69850000D03*
X132715000Y-69850000D03*
X135255000Y-69850000D03*
X137795000Y-69850000D03*
X140335000Y-69850000D03*
X142875000Y-69850000D03*
%TD*%
D13*
%TO.C,Nav_Switch1*%
X112395000Y-83820000D03*
D14*
X108695000Y-83820000D03*
D13*
X105895000Y-83820000D03*
X105895000Y-94120000D03*
D14*
X108695000Y-94120000D03*
D13*
X112395000Y-94120000D03*
%TD*%
D15*
%TO.C,REF\u002A\u002A*%
X157480000Y-101600000D03*
%TD*%
%TO.C,*%
X156845000Y-41275000D03*
%TD*%
%TO.C,*%
X107315000Y-41275000D03*
%TD*%
D16*
%TO.C,J2*%
X156253780Y-84493021D03*
X156253780Y-89493021D03*
D17*
X159003780Y-83118021D03*
D18*
X155203780Y-90718021D03*
D17*
X159003780Y-90868021D03*
D18*
X155203780Y-83268021D03*
%TD*%
D11*
%TO.C,BreakoutConnector1*%
X152400000Y-66040000D03*
D19*
X152400000Y-63500000D03*
X152400000Y-60960000D03*
X152400000Y-58420000D03*
X152400000Y-55880000D03*
X152400000Y-53340000D03*
X152400000Y-50800000D03*
X152400000Y-48260000D03*
%TD*%
D15*
%TO.C,REF\u002A\u002A*%
X106680000Y-101600000D03*
%TD*%
D20*
%TO.C,U1*%
X129645000Y-62065000D03*
%TD*%
D21*
%TO.C,RESET_SW1*%
X113030000Y-51435000D03*
X113030000Y-57935000D03*
X108530000Y-51435000D03*
X108530000Y-57935000D03*
%TD*%
D22*
%TO.C,PwrIn1*%
X146685000Y-93345000D03*
X121285000Y-93345000D03*
D23*
X133985000Y-93345000D03*
%TD*%
M02*
