M48
; DRILL file {KiCad (5.99.0-3294-g9c46e491e)} date Tuesday, November 17, 2020 at 04:52:20 AM
; FORMAT={-:-/ absolute / inch / decimal}
; #@! TF.CreationDate,2020-11-17T04:52:20-05:00
; #@! TF.GenerationSoftware,Kicad,Pcbnew,(5.99.0-3294-g9c46e491e)
FMAT,2
INCH
T1C0.0157
T2C0.0217
T3C0.0335
T4C0.0394
T5C0.0433
T6C0.0472
T7C0.0748
T8C0.1457
T9C0.0315
T10C0.0394
T11C0.1063
%
G90
G05
T1
X4.55Y-1.9
X4.62Y-2.1
X4.65Y-2.5
X4.675Y-2.225
X4.68Y-2.125
X4.68Y-2.175
X4.925Y-2.625
X4.96Y-2.36
X5.025Y-2.25
X5.125Y-1.95
X5.125Y-2.025
X5.25Y-1.9
X5.4Y-2.25
X5.4895Y-1.8981
X5.55Y-3.225
X5.575Y-3.025
X5.875Y-3.125
X5.925Y-3.225
X6.1856Y-2.3394
X6.225Y-2.275
T4
X4.925Y-2.75
X5.025Y-2.75
X5.125Y-2.75
X5.225Y-2.75
X5.325Y-2.75
X5.425Y-2.75
X5.525Y-2.75
X5.625Y-2.75
X6.0Y-1.9
X6.0Y-2.0
X6.0Y-2.1
X6.0Y-2.2
X6.0Y-2.3
X6.0Y-2.4
X6.0Y-2.5
X6.0Y-2.6
X4.2793Y-3.3
X4.2793Y-3.7055
T5
X4.2728Y-2.025
X4.2728Y-2.2809
X4.45Y-2.025
X4.45Y-2.2809
T6
X4.1691Y-3.3
X4.1691Y-3.7055
X4.425Y-3.3
X4.425Y-3.7055
T7
X4.775Y-3.675
X5.775Y-3.675
T8
X4.225Y-1.625
X4.2Y-4.0
X6.175Y-1.625
X6.2Y-4.0
T9
X6.1517Y-3.3265
X6.1517Y-3.5233
T10
X5.1041Y-2.4435
T11
X4.705Y-2.75
X4.705Y-3.91
X5.845Y-2.75
X5.845Y-3.91
T2
G00X6.2472Y-3.2724
M15
G01X6.2728Y-3.2724
M16
G05
G00X6.2472Y-3.5775
M15
G01X6.2728Y-3.5775
M16
G05
T3
G00X6.0996Y-3.2783
M15
G01X6.1212Y-3.2783
M16
G05
G00X6.0996Y-3.5716
M15
G01X6.1212Y-3.5716
M16
G05
T0
M30
