%TF.GenerationSoftware,KiCad,Pcbnew,(5.99.0-3294-g9c46e491e)*%
%TF.CreationDate,2020-11-17T05:13:20-05:00*%
%TF.ProjectId,mobile-tag,6d6f6269-6c65-42d7-9461-672e6b696361,rev?*%
%TF.SameCoordinates,Original*%
%TF.FileFunction,Legend,Top*%
%TF.FilePolarity,Positive*%
%FSLAX46Y46*%
G04 Gerber Fmt 4.6, Leading zero omitted, Abs format (unit mm)*
G04 Created by KiCad (PCBNEW (5.99.0-3294-g9c46e491e)) date 2020-11-17 05:13:20*
%MOMM*%
%LPD*%
G01*
G04 APERTURE LIST*
%ADD10C,0.150000*%
%ADD11C,0.254000*%
%ADD12C,0.120000*%
%ADD13C,0.100000*%
G04 APERTURE END LIST*
D10*
X127469047Y-99272380D02*
X127469047Y-99986666D01*
X127421428Y-100129523D01*
X127326190Y-100224761D01*
X127183333Y-100272380D01*
X127088095Y-100272380D01*
X128088095Y-100272380D02*
X127992857Y-100224761D01*
X127945238Y-100177142D01*
X127897619Y-100081904D01*
X127897619Y-99796190D01*
X127945238Y-99700952D01*
X127992857Y-99653333D01*
X128088095Y-99605714D01*
X128230952Y-99605714D01*
X128326190Y-99653333D01*
X128373809Y-99700952D01*
X128421428Y-99796190D01*
X128421428Y-100081904D01*
X128373809Y-100177142D01*
X128326190Y-100224761D01*
X128230952Y-100272380D01*
X128088095Y-100272380D01*
X128850000Y-99605714D02*
X128850000Y-100272380D01*
X128850000Y-99700952D02*
X128897619Y-99653333D01*
X128992857Y-99605714D01*
X129135714Y-99605714D01*
X129230952Y-99653333D01*
X129278571Y-99748571D01*
X129278571Y-100272380D01*
X130183333Y-100272380D02*
X130183333Y-99748571D01*
X130135714Y-99653333D01*
X130040476Y-99605714D01*
X129850000Y-99605714D01*
X129754761Y-99653333D01*
X130183333Y-100224761D02*
X130088095Y-100272380D01*
X129850000Y-100272380D01*
X129754761Y-100224761D01*
X129707142Y-100129523D01*
X129707142Y-100034285D01*
X129754761Y-99939047D01*
X129850000Y-99891428D01*
X130088095Y-99891428D01*
X130183333Y-99843809D01*
X130516666Y-99605714D02*
X130897619Y-99605714D01*
X130659523Y-99272380D02*
X130659523Y-100129523D01*
X130707142Y-100224761D01*
X130802380Y-100272380D01*
X130897619Y-100272380D01*
X131230952Y-100272380D02*
X131230952Y-99272380D01*
X131659523Y-100272380D02*
X131659523Y-99748571D01*
X131611904Y-99653333D01*
X131516666Y-99605714D01*
X131373809Y-99605714D01*
X131278571Y-99653333D01*
X131230952Y-99700952D01*
X132564285Y-100272380D02*
X132564285Y-99748571D01*
X132516666Y-99653333D01*
X132421428Y-99605714D01*
X132230952Y-99605714D01*
X132135714Y-99653333D01*
X132564285Y-100224761D02*
X132469047Y-100272380D01*
X132230952Y-100272380D01*
X132135714Y-100224761D01*
X132088095Y-100129523D01*
X132088095Y-100034285D01*
X132135714Y-99939047D01*
X132230952Y-99891428D01*
X132469047Y-99891428D01*
X132564285Y-99843809D01*
X133040476Y-99605714D02*
X133040476Y-100272380D01*
X133040476Y-99700952D02*
X133088095Y-99653333D01*
X133183333Y-99605714D01*
X133326190Y-99605714D01*
X133421428Y-99653333D01*
X133469047Y-99748571D01*
X133469047Y-100272380D01*
X134707142Y-100272380D02*
X134707142Y-99272380D01*
X135278571Y-100272380D02*
X134850000Y-99700952D01*
X135278571Y-99272380D02*
X134707142Y-99843809D01*
X136088095Y-100224761D02*
X135992857Y-100272380D01*
X135802380Y-100272380D01*
X135707142Y-100224761D01*
X135659523Y-100129523D01*
X135659523Y-99748571D01*
X135707142Y-99653333D01*
X135802380Y-99605714D01*
X135992857Y-99605714D01*
X136088095Y-99653333D01*
X136135714Y-99748571D01*
X136135714Y-99843809D01*
X135659523Y-99939047D01*
X136707142Y-100272380D02*
X136611904Y-100224761D01*
X136564285Y-100129523D01*
X136564285Y-99272380D01*
X137230952Y-100272380D02*
X137135714Y-100224761D01*
X137088095Y-100129523D01*
X137088095Y-99272380D01*
X137992857Y-100224761D02*
X137897619Y-100272380D01*
X137707142Y-100272380D01*
X137611904Y-100224761D01*
X137564285Y-100129523D01*
X137564285Y-99748571D01*
X137611904Y-99653333D01*
X137707142Y-99605714D01*
X137897619Y-99605714D01*
X137992857Y-99653333D01*
X138040476Y-99748571D01*
X138040476Y-99843809D01*
X137564285Y-99939047D01*
X138373809Y-99605714D02*
X138611904Y-100272380D01*
X138850000Y-99605714D02*
X138611904Y-100272380D01*
X138516666Y-100510476D01*
X138469047Y-100558095D01*
X138373809Y-100605714D01*
X124921428Y-101882380D02*
X124921428Y-100882380D01*
X125397619Y-101215714D02*
X125397619Y-101882380D01*
X125397619Y-101310952D02*
X125445238Y-101263333D01*
X125540476Y-101215714D01*
X125683333Y-101215714D01*
X125778571Y-101263333D01*
X125826190Y-101358571D01*
X125826190Y-101882380D01*
X126730952Y-101882380D02*
X126730952Y-100882380D01*
X126730952Y-101834761D02*
X126635714Y-101882380D01*
X126445238Y-101882380D01*
X126350000Y-101834761D01*
X126302380Y-101787142D01*
X126254761Y-101691904D01*
X126254761Y-101406190D01*
X126302380Y-101310952D01*
X126350000Y-101263333D01*
X126445238Y-101215714D01*
X126635714Y-101215714D01*
X126730952Y-101263333D01*
X127350000Y-101882380D02*
X127254761Y-101834761D01*
X127207142Y-101787142D01*
X127159523Y-101691904D01*
X127159523Y-101406190D01*
X127207142Y-101310952D01*
X127254761Y-101263333D01*
X127350000Y-101215714D01*
X127492857Y-101215714D01*
X127588095Y-101263333D01*
X127635714Y-101310952D01*
X127683333Y-101406190D01*
X127683333Y-101691904D01*
X127635714Y-101787142D01*
X127588095Y-101834761D01*
X127492857Y-101882380D01*
X127350000Y-101882380D01*
X128254761Y-101882380D02*
X128159523Y-101834761D01*
X128111904Y-101787142D01*
X128064285Y-101691904D01*
X128064285Y-101406190D01*
X128111904Y-101310952D01*
X128159523Y-101263333D01*
X128254761Y-101215714D01*
X128397619Y-101215714D01*
X128492857Y-101263333D01*
X128540476Y-101310952D01*
X128588095Y-101406190D01*
X128588095Y-101691904D01*
X128540476Y-101787142D01*
X128492857Y-101834761D01*
X128397619Y-101882380D01*
X128254761Y-101882380D01*
X129016666Y-101882380D02*
X129016666Y-101215714D01*
X129016666Y-101406190D02*
X129064285Y-101310952D01*
X129111904Y-101263333D01*
X129207142Y-101215714D01*
X129302380Y-101215714D01*
X130921428Y-100930000D02*
X130826190Y-100882380D01*
X130683333Y-100882380D01*
X130540476Y-100930000D01*
X130445238Y-101025238D01*
X130397619Y-101120476D01*
X130350000Y-101310952D01*
X130350000Y-101453809D01*
X130397619Y-101644285D01*
X130445238Y-101739523D01*
X130540476Y-101834761D01*
X130683333Y-101882380D01*
X130778571Y-101882380D01*
X130921428Y-101834761D01*
X130969047Y-101787142D01*
X130969047Y-101453809D01*
X130778571Y-101453809D01*
X131397619Y-101882380D02*
X131397619Y-100882380D01*
X131778571Y-100882380D01*
X131873809Y-100930000D01*
X131921428Y-100977619D01*
X131969047Y-101072857D01*
X131969047Y-101215714D01*
X131921428Y-101310952D01*
X131873809Y-101358571D01*
X131778571Y-101406190D01*
X131397619Y-101406190D01*
X132350000Y-101834761D02*
X132492857Y-101882380D01*
X132730952Y-101882380D01*
X132826190Y-101834761D01*
X132873809Y-101787142D01*
X132921428Y-101691904D01*
X132921428Y-101596666D01*
X132873809Y-101501428D01*
X132826190Y-101453809D01*
X132730952Y-101406190D01*
X132540476Y-101358571D01*
X132445238Y-101310952D01*
X132397619Y-101263333D01*
X132350000Y-101168095D01*
X132350000Y-101072857D01*
X132397619Y-100977619D01*
X132445238Y-100930000D01*
X132540476Y-100882380D01*
X132778571Y-100882380D01*
X132921428Y-100930000D01*
X134111904Y-101882380D02*
X134111904Y-100882380D01*
X134445238Y-101596666D01*
X134778571Y-100882380D01*
X134778571Y-101882380D01*
X135397619Y-101882380D02*
X135302380Y-101834761D01*
X135254761Y-101787142D01*
X135207142Y-101691904D01*
X135207142Y-101406190D01*
X135254761Y-101310952D01*
X135302380Y-101263333D01*
X135397619Y-101215714D01*
X135540476Y-101215714D01*
X135635714Y-101263333D01*
X135683333Y-101310952D01*
X135730952Y-101406190D01*
X135730952Y-101691904D01*
X135683333Y-101787142D01*
X135635714Y-101834761D01*
X135540476Y-101882380D01*
X135397619Y-101882380D01*
X136159523Y-101882380D02*
X136159523Y-100882380D01*
X136159523Y-101263333D02*
X136254761Y-101215714D01*
X136445238Y-101215714D01*
X136540476Y-101263333D01*
X136588095Y-101310952D01*
X136635714Y-101406190D01*
X136635714Y-101691904D01*
X136588095Y-101787142D01*
X136540476Y-101834761D01*
X136445238Y-101882380D01*
X136254761Y-101882380D01*
X136159523Y-101834761D01*
X137064285Y-101882380D02*
X137064285Y-101215714D01*
X137064285Y-100882380D02*
X137016666Y-100930000D01*
X137064285Y-100977619D01*
X137111904Y-100930000D01*
X137064285Y-100882380D01*
X137064285Y-100977619D01*
X137683333Y-101882380D02*
X137588095Y-101834761D01*
X137540476Y-101739523D01*
X137540476Y-100882380D01*
X138445238Y-101834761D02*
X138350000Y-101882380D01*
X138159523Y-101882380D01*
X138064285Y-101834761D01*
X138016666Y-101739523D01*
X138016666Y-101358571D01*
X138064285Y-101263333D01*
X138159523Y-101215714D01*
X138350000Y-101215714D01*
X138445238Y-101263333D01*
X138492857Y-101358571D01*
X138492857Y-101453809D01*
X138016666Y-101549047D01*
X139540476Y-100882380D02*
X140111904Y-100882380D01*
X139826190Y-101882380D02*
X139826190Y-100882380D01*
X140873809Y-101882380D02*
X140873809Y-101358571D01*
X140826190Y-101263333D01*
X140730952Y-101215714D01*
X140540476Y-101215714D01*
X140445238Y-101263333D01*
X140873809Y-101834761D02*
X140778571Y-101882380D01*
X140540476Y-101882380D01*
X140445238Y-101834761D01*
X140397619Y-101739523D01*
X140397619Y-101644285D01*
X140445238Y-101549047D01*
X140540476Y-101501428D01*
X140778571Y-101501428D01*
X140873809Y-101453809D01*
X141778571Y-101215714D02*
X141778571Y-102025238D01*
X141730952Y-102120476D01*
X141683333Y-102168095D01*
X141588095Y-102215714D01*
X141445238Y-102215714D01*
X141350000Y-102168095D01*
X141778571Y-101834761D02*
X141683333Y-101882380D01*
X141492857Y-101882380D01*
X141397619Y-101834761D01*
X141350000Y-101787142D01*
X141302380Y-101691904D01*
X141302380Y-101406190D01*
X141350000Y-101310952D01*
X141397619Y-101263333D01*
X141492857Y-101215714D01*
X141683333Y-101215714D01*
X141778571Y-101263333D01*
X129945238Y-103492380D02*
X129945238Y-102492380D01*
X130278571Y-103206666D01*
X130611904Y-102492380D01*
X130611904Y-103492380D01*
X131088095Y-103492380D02*
X131088095Y-102492380D01*
X131183333Y-103111428D02*
X131469047Y-103492380D01*
X131469047Y-102825714D02*
X131088095Y-103206666D01*
X132850000Y-102492380D02*
X132945238Y-102492380D01*
X133040476Y-102540000D01*
X133088095Y-102587619D01*
X133135714Y-102682857D01*
X133183333Y-102873333D01*
X133183333Y-103111428D01*
X133135714Y-103301904D01*
X133088095Y-103397142D01*
X133040476Y-103444761D01*
X132945238Y-103492380D01*
X132850000Y-103492380D01*
X132754761Y-103444761D01*
X132707142Y-103397142D01*
X132659523Y-103301904D01*
X132611904Y-103111428D01*
X132611904Y-102873333D01*
X132659523Y-102682857D01*
X132707142Y-102587619D01*
X132754761Y-102540000D01*
X132850000Y-102492380D01*
X133611904Y-103397142D02*
X133659523Y-103444761D01*
X133611904Y-103492380D01*
X133564285Y-103444761D01*
X133611904Y-103397142D01*
X133611904Y-103492380D01*
X134278571Y-102492380D02*
X134373809Y-102492380D01*
X134469047Y-102540000D01*
X134516666Y-102587619D01*
X134564285Y-102682857D01*
X134611904Y-102873333D01*
X134611904Y-103111428D01*
X134564285Y-103301904D01*
X134516666Y-103397142D01*
X134469047Y-103444761D01*
X134373809Y-103492380D01*
X134278571Y-103492380D01*
X134183333Y-103444761D01*
X134135714Y-103397142D01*
X134088095Y-103301904D01*
X134040476Y-103111428D01*
X134040476Y-102873333D01*
X134088095Y-102682857D01*
X134135714Y-102587619D01*
X134183333Y-102540000D01*
X134278571Y-102492380D01*
X135040476Y-103397142D02*
X135088095Y-103444761D01*
X135040476Y-103492380D01*
X134992857Y-103444761D01*
X135040476Y-103397142D01*
X135040476Y-103492380D01*
X136040476Y-103492380D02*
X135469047Y-103492380D01*
X135754761Y-103492380D02*
X135754761Y-102492380D01*
X135659523Y-102635238D01*
X135564285Y-102730476D01*
X135469047Y-102778095D01*
X131635714Y-104340476D02*
X131540476Y-104292857D01*
X131350000Y-104292857D01*
X131254761Y-104340476D01*
X131159523Y-104435714D01*
X131111904Y-104530952D01*
X131111904Y-104721428D01*
X131159523Y-104816666D01*
X131254761Y-104911904D01*
X131350000Y-104959523D01*
X131540476Y-104959523D01*
X131635714Y-104911904D01*
X131445238Y-103959523D02*
X131207142Y-104007142D01*
X130969047Y-104150000D01*
X130826190Y-104388095D01*
X130778571Y-104626190D01*
X130826190Y-104864285D01*
X130969047Y-105102380D01*
X131207142Y-105245238D01*
X131445238Y-105292857D01*
X131683333Y-105245238D01*
X131921428Y-105102380D01*
X132064285Y-104864285D01*
X132111904Y-104626190D01*
X132064285Y-104388095D01*
X131921428Y-104150000D01*
X131683333Y-104007142D01*
X131445238Y-103959523D01*
X132492857Y-104197619D02*
X132540476Y-104150000D01*
X132635714Y-104102380D01*
X132873809Y-104102380D01*
X132969047Y-104150000D01*
X133016666Y-104197619D01*
X133064285Y-104292857D01*
X133064285Y-104388095D01*
X133016666Y-104530952D01*
X132445238Y-105102380D01*
X133064285Y-105102380D01*
X133683333Y-104102380D02*
X133778571Y-104102380D01*
X133873809Y-104150000D01*
X133921428Y-104197619D01*
X133969047Y-104292857D01*
X134016666Y-104483333D01*
X134016666Y-104721428D01*
X133969047Y-104911904D01*
X133921428Y-105007142D01*
X133873809Y-105054761D01*
X133778571Y-105102380D01*
X133683333Y-105102380D01*
X133588095Y-105054761D01*
X133540476Y-105007142D01*
X133492857Y-104911904D01*
X133445238Y-104721428D01*
X133445238Y-104483333D01*
X133492857Y-104292857D01*
X133540476Y-104197619D01*
X133588095Y-104150000D01*
X133683333Y-104102380D01*
X134397619Y-104197619D02*
X134445238Y-104150000D01*
X134540476Y-104102380D01*
X134778571Y-104102380D01*
X134873809Y-104150000D01*
X134921428Y-104197619D01*
X134969047Y-104292857D01*
X134969047Y-104388095D01*
X134921428Y-104530952D01*
X134350000Y-105102380D01*
X134969047Y-105102380D01*
X135588095Y-104102380D02*
X135683333Y-104102380D01*
X135778571Y-104150000D01*
X135826190Y-104197619D01*
X135873809Y-104292857D01*
X135921428Y-104483333D01*
X135921428Y-104721428D01*
X135873809Y-104911904D01*
X135826190Y-105007142D01*
X135778571Y-105054761D01*
X135683333Y-105102380D01*
X135588095Y-105102380D01*
X135492857Y-105054761D01*
X135445238Y-105007142D01*
X135397619Y-104911904D01*
X135350000Y-104721428D01*
X135350000Y-104483333D01*
X135397619Y-104292857D01*
X135445238Y-104197619D01*
X135492857Y-104150000D01*
X135588095Y-104102380D01*
%TO.C,Display1*%
X130421428Y-72207380D02*
X130421428Y-71207380D01*
X130659523Y-71207380D01*
X130802380Y-71255000D01*
X130897619Y-71350238D01*
X130945238Y-71445476D01*
X130992857Y-71635952D01*
X130992857Y-71778809D01*
X130945238Y-71969285D01*
X130897619Y-72064523D01*
X130802380Y-72159761D01*
X130659523Y-72207380D01*
X130421428Y-72207380D01*
X131421428Y-72207380D02*
X131421428Y-71540714D01*
X131421428Y-71207380D02*
X131373809Y-71255000D01*
X131421428Y-71302619D01*
X131469047Y-71255000D01*
X131421428Y-71207380D01*
X131421428Y-71302619D01*
X131850000Y-72159761D02*
X131945238Y-72207380D01*
X132135714Y-72207380D01*
X132230952Y-72159761D01*
X132278571Y-72064523D01*
X132278571Y-72016904D01*
X132230952Y-71921666D01*
X132135714Y-71874047D01*
X131992857Y-71874047D01*
X131897619Y-71826428D01*
X131850000Y-71731190D01*
X131850000Y-71683571D01*
X131897619Y-71588333D01*
X131992857Y-71540714D01*
X132135714Y-71540714D01*
X132230952Y-71588333D01*
X132707142Y-71540714D02*
X132707142Y-72540714D01*
X132707142Y-71588333D02*
X132802380Y-71540714D01*
X132992857Y-71540714D01*
X133088095Y-71588333D01*
X133135714Y-71635952D01*
X133183333Y-71731190D01*
X133183333Y-72016904D01*
X133135714Y-72112142D01*
X133088095Y-72159761D01*
X132992857Y-72207380D01*
X132802380Y-72207380D01*
X132707142Y-72159761D01*
X133754761Y-72207380D02*
X133659523Y-72159761D01*
X133611904Y-72064523D01*
X133611904Y-71207380D01*
X134564285Y-72207380D02*
X134564285Y-71683571D01*
X134516666Y-71588333D01*
X134421428Y-71540714D01*
X134230952Y-71540714D01*
X134135714Y-71588333D01*
X134564285Y-72159761D02*
X134469047Y-72207380D01*
X134230952Y-72207380D01*
X134135714Y-72159761D01*
X134088095Y-72064523D01*
X134088095Y-71969285D01*
X134135714Y-71874047D01*
X134230952Y-71826428D01*
X134469047Y-71826428D01*
X134564285Y-71778809D01*
X134945238Y-71540714D02*
X135183333Y-72207380D01*
X135421428Y-71540714D02*
X135183333Y-72207380D01*
X135088095Y-72445476D01*
X135040476Y-72493095D01*
X134945238Y-72540714D01*
X136326190Y-72207380D02*
X135754761Y-72207380D01*
X136040476Y-72207380D02*
X136040476Y-71207380D01*
X135945238Y-71350238D01*
X135850000Y-71445476D01*
X135754761Y-71493095D01*
%TO.C,D2*%
X104671904Y-75687380D02*
X104671904Y-74687380D01*
X104910000Y-74687380D01*
X105052857Y-74735000D01*
X105148095Y-74830238D01*
X105195714Y-74925476D01*
X105243333Y-75115952D01*
X105243333Y-75258809D01*
X105195714Y-75449285D01*
X105148095Y-75544523D01*
X105052857Y-75639761D01*
X104910000Y-75687380D01*
X104671904Y-75687380D01*
X105624285Y-74782619D02*
X105671904Y-74735000D01*
X105767142Y-74687380D01*
X106005238Y-74687380D01*
X106100476Y-74735000D01*
X106148095Y-74782619D01*
X106195714Y-74877857D01*
X106195714Y-74973095D01*
X106148095Y-75115952D01*
X105576666Y-75687380D01*
X106195714Y-75687380D01*
D11*
%TO.C,Nav_Switch1*%
X103656190Y-88839523D02*
X103656190Y-87569523D01*
X104381904Y-88839523D01*
X104381904Y-87569523D01*
X105530952Y-88839523D02*
X105530952Y-88174285D01*
X105470476Y-88053333D01*
X105349523Y-87992857D01*
X105107619Y-87992857D01*
X104986666Y-88053333D01*
X105530952Y-88779047D02*
X105410000Y-88839523D01*
X105107619Y-88839523D01*
X104986666Y-88779047D01*
X104926190Y-88658095D01*
X104926190Y-88537142D01*
X104986666Y-88416190D01*
X105107619Y-88355714D01*
X105410000Y-88355714D01*
X105530952Y-88295238D01*
X106014761Y-87992857D02*
X106317142Y-88839523D01*
X106619523Y-87992857D01*
X106800952Y-88960476D02*
X107768571Y-88960476D01*
X108010476Y-88779047D02*
X108191904Y-88839523D01*
X108494285Y-88839523D01*
X108615238Y-88779047D01*
X108675714Y-88718571D01*
X108736190Y-88597619D01*
X108736190Y-88476666D01*
X108675714Y-88355714D01*
X108615238Y-88295238D01*
X108494285Y-88234761D01*
X108252380Y-88174285D01*
X108131428Y-88113809D01*
X108070952Y-88053333D01*
X108010476Y-87932380D01*
X108010476Y-87811428D01*
X108070952Y-87690476D01*
X108131428Y-87630000D01*
X108252380Y-87569523D01*
X108554761Y-87569523D01*
X108736190Y-87630000D01*
X109159523Y-87992857D02*
X109401428Y-88839523D01*
X109643333Y-88234761D01*
X109885238Y-88839523D01*
X110127142Y-87992857D01*
X110610952Y-88839523D02*
X110610952Y-87992857D01*
X110610952Y-87569523D02*
X110550476Y-87630000D01*
X110610952Y-87690476D01*
X110671428Y-87630000D01*
X110610952Y-87569523D01*
X110610952Y-87690476D01*
X111034285Y-87992857D02*
X111518095Y-87992857D01*
X111215714Y-87569523D02*
X111215714Y-88658095D01*
X111276190Y-88779047D01*
X111397142Y-88839523D01*
X111518095Y-88839523D01*
X112485714Y-88779047D02*
X112364761Y-88839523D01*
X112122857Y-88839523D01*
X112001904Y-88779047D01*
X111941428Y-88718571D01*
X111880952Y-88597619D01*
X111880952Y-88234761D01*
X111941428Y-88113809D01*
X112001904Y-88053333D01*
X112122857Y-87992857D01*
X112364761Y-87992857D01*
X112485714Y-88053333D01*
X113030000Y-88839523D02*
X113030000Y-87569523D01*
X113574285Y-88839523D02*
X113574285Y-88174285D01*
X113513809Y-88053333D01*
X113392857Y-87992857D01*
X113211428Y-87992857D01*
X113090476Y-88053333D01*
X113030000Y-88113809D01*
X114844285Y-88839523D02*
X114118571Y-88839523D01*
X114481428Y-88839523D02*
X114481428Y-87569523D01*
X114360476Y-87750952D01*
X114239523Y-87871904D01*
X114118571Y-87932380D01*
D10*
%TO.C,D3*%
X104671904Y-69972380D02*
X104671904Y-68972380D01*
X104910000Y-68972380D01*
X105052857Y-69020000D01*
X105148095Y-69115238D01*
X105195714Y-69210476D01*
X105243333Y-69400952D01*
X105243333Y-69543809D01*
X105195714Y-69734285D01*
X105148095Y-69829523D01*
X105052857Y-69924761D01*
X104910000Y-69972380D01*
X104671904Y-69972380D01*
X105576666Y-68972380D02*
X106195714Y-68972380D01*
X105862380Y-69353333D01*
X106005238Y-69353333D01*
X106100476Y-69400952D01*
X106148095Y-69448571D01*
X106195714Y-69543809D01*
X106195714Y-69781904D01*
X106148095Y-69877142D01*
X106100476Y-69924761D01*
X106005238Y-69972380D01*
X105719523Y-69972380D01*
X105624285Y-69924761D01*
X105576666Y-69877142D01*
%TO.C,REF\u002A\u002A*%
X156146666Y-97352380D02*
X155813333Y-96876190D01*
X155575238Y-97352380D02*
X155575238Y-96352380D01*
X155956190Y-96352380D01*
X156051428Y-96400000D01*
X156099047Y-96447619D01*
X156146666Y-96542857D01*
X156146666Y-96685714D01*
X156099047Y-96780952D01*
X156051428Y-96828571D01*
X155956190Y-96876190D01*
X155575238Y-96876190D01*
X156575238Y-96828571D02*
X156908571Y-96828571D01*
X157051428Y-97352380D02*
X156575238Y-97352380D01*
X156575238Y-96352380D01*
X157051428Y-96352380D01*
X157813333Y-96828571D02*
X157480000Y-96828571D01*
X157480000Y-97352380D02*
X157480000Y-96352380D01*
X157956190Y-96352380D01*
X158480000Y-96352380D02*
X158480000Y-96590476D01*
X158241904Y-96495238D02*
X158480000Y-96590476D01*
X158718095Y-96495238D01*
X158337142Y-96780952D02*
X158480000Y-96590476D01*
X158622857Y-96780952D01*
X159241904Y-96352380D02*
X159241904Y-96590476D01*
X159003809Y-96495238D02*
X159241904Y-96590476D01*
X159480000Y-96495238D01*
X159099047Y-96780952D02*
X159241904Y-96590476D01*
X159384761Y-96780952D01*
%TO.C,*%
%TO.C,R2*%
X111593333Y-69752380D02*
X111260000Y-69276190D01*
X111021904Y-69752380D02*
X111021904Y-68752380D01*
X111402857Y-68752380D01*
X111498095Y-68800000D01*
X111545714Y-68847619D01*
X111593333Y-68942857D01*
X111593333Y-69085714D01*
X111545714Y-69180952D01*
X111498095Y-69228571D01*
X111402857Y-69276190D01*
X111021904Y-69276190D01*
X111974285Y-68847619D02*
X112021904Y-68800000D01*
X112117142Y-68752380D01*
X112355238Y-68752380D01*
X112450476Y-68800000D01*
X112498095Y-68847619D01*
X112545714Y-68942857D01*
X112545714Y-69038095D01*
X112498095Y-69180952D01*
X111926666Y-69752380D01*
X112545714Y-69752380D01*
%TO.C,R4*%
X117689333Y-87512380D02*
X117356000Y-87036190D01*
X117117904Y-87512380D02*
X117117904Y-86512380D01*
X117498857Y-86512380D01*
X117594095Y-86560000D01*
X117641714Y-86607619D01*
X117689333Y-86702857D01*
X117689333Y-86845714D01*
X117641714Y-86940952D01*
X117594095Y-86988571D01*
X117498857Y-87036190D01*
X117117904Y-87036190D01*
X118546476Y-86845714D02*
X118546476Y-87512380D01*
X118308380Y-86464761D02*
X118070285Y-87179047D01*
X118689333Y-87179047D01*
%TO.C,*%
%TO.C,J2*%
X153006160Y-87326354D02*
X153720446Y-87326354D01*
X153863303Y-87373973D01*
X153958541Y-87469211D01*
X154006160Y-87612068D01*
X154006160Y-87707306D01*
X153101399Y-86897782D02*
X153053780Y-86850163D01*
X153006160Y-86754925D01*
X153006160Y-86516830D01*
X153053780Y-86421592D01*
X153101399Y-86373973D01*
X153196637Y-86326354D01*
X153291875Y-86326354D01*
X153434732Y-86373973D01*
X154006160Y-86945401D01*
X154006160Y-86326354D01*
%TO.C,RN1*%
X117583523Y-77304380D02*
X117250190Y-76828190D01*
X117012095Y-77304380D02*
X117012095Y-76304380D01*
X117393047Y-76304380D01*
X117488285Y-76352000D01*
X117535904Y-76399619D01*
X117583523Y-76494857D01*
X117583523Y-76637714D01*
X117535904Y-76732952D01*
X117488285Y-76780571D01*
X117393047Y-76828190D01*
X117012095Y-76828190D01*
X118012095Y-77304380D02*
X118012095Y-76304380D01*
X118583523Y-77304380D01*
X118583523Y-76304380D01*
X119583523Y-77304380D02*
X119012095Y-77304380D01*
X119297809Y-77304380D02*
X119297809Y-76304380D01*
X119202571Y-76447238D01*
X119107333Y-76542476D01*
X119012095Y-76590095D01*
%TO.C,D1*%
X127412380Y-79478095D02*
X126412380Y-79478095D01*
X126412380Y-79240000D01*
X126460000Y-79097142D01*
X126555238Y-79001904D01*
X126650476Y-78954285D01*
X126840952Y-78906666D01*
X126983809Y-78906666D01*
X127174285Y-78954285D01*
X127269523Y-79001904D01*
X127364761Y-79097142D01*
X127412380Y-79240000D01*
X127412380Y-79478095D01*
X127412380Y-77954285D02*
X127412380Y-78525714D01*
X127412380Y-78240000D02*
X126412380Y-78240000D01*
X126555238Y-78335238D01*
X126650476Y-78430476D01*
X126698095Y-78525714D01*
%TO.C,R3*%
X111593333Y-62767380D02*
X111260000Y-62291190D01*
X111021904Y-62767380D02*
X111021904Y-61767380D01*
X111402857Y-61767380D01*
X111498095Y-61815000D01*
X111545714Y-61862619D01*
X111593333Y-61957857D01*
X111593333Y-62100714D01*
X111545714Y-62195952D01*
X111498095Y-62243571D01*
X111402857Y-62291190D01*
X111021904Y-62291190D01*
X111926666Y-61767380D02*
X112545714Y-61767380D01*
X112212380Y-62148333D01*
X112355238Y-62148333D01*
X112450476Y-62195952D01*
X112498095Y-62243571D01*
X112545714Y-62338809D01*
X112545714Y-62576904D01*
X112498095Y-62672142D01*
X112450476Y-62719761D01*
X112355238Y-62767380D01*
X112069523Y-62767380D01*
X111974285Y-62719761D01*
X111926666Y-62672142D01*
%TO.C,C2*%
X134007857Y-76668333D02*
X133960238Y-76620714D01*
X133912619Y-76477857D01*
X133912619Y-76382619D01*
X133960238Y-76239761D01*
X134055476Y-76144523D01*
X134150714Y-76096904D01*
X134341190Y-76049285D01*
X134484047Y-76049285D01*
X134674523Y-76096904D01*
X134769761Y-76144523D01*
X134865000Y-76239761D01*
X134912619Y-76382619D01*
X134912619Y-76477857D01*
X134865000Y-76620714D01*
X134817380Y-76668333D01*
X134817380Y-77049285D02*
X134865000Y-77096904D01*
X134912619Y-77192142D01*
X134912619Y-77430238D01*
X134865000Y-77525476D01*
X134817380Y-77573095D01*
X134722142Y-77620714D01*
X134626904Y-77620714D01*
X134484047Y-77573095D01*
X133912619Y-77001666D01*
X133912619Y-77620714D01*
%TO.C,R1*%
X111593333Y-75467380D02*
X111260000Y-74991190D01*
X111021904Y-75467380D02*
X111021904Y-74467380D01*
X111402857Y-74467380D01*
X111498095Y-74515000D01*
X111545714Y-74562619D01*
X111593333Y-74657857D01*
X111593333Y-74800714D01*
X111545714Y-74895952D01*
X111498095Y-74943571D01*
X111402857Y-74991190D01*
X111021904Y-74991190D01*
X112545714Y-75467380D02*
X111974285Y-75467380D01*
X112260000Y-75467380D02*
X112260000Y-74467380D01*
X112164761Y-74610238D01*
X112069523Y-74705476D01*
X111974285Y-74753095D01*
%TO.C,D4*%
X104671904Y-62987380D02*
X104671904Y-61987380D01*
X104910000Y-61987380D01*
X105052857Y-62035000D01*
X105148095Y-62130238D01*
X105195714Y-62225476D01*
X105243333Y-62415952D01*
X105243333Y-62558809D01*
X105195714Y-62749285D01*
X105148095Y-62844523D01*
X105052857Y-62939761D01*
X104910000Y-62987380D01*
X104671904Y-62987380D01*
X106100476Y-62320714D02*
X106100476Y-62987380D01*
X105862380Y-61939761D02*
X105624285Y-62654047D01*
X106243333Y-62654047D01*
%TO.C,C3*%
X109809716Y-47791666D02*
X109857335Y-47839285D01*
X109904954Y-47982142D01*
X109904954Y-48077380D01*
X109857335Y-48220238D01*
X109762097Y-48315476D01*
X109666859Y-48363095D01*
X109476383Y-48410714D01*
X109333526Y-48410714D01*
X109143050Y-48363095D01*
X109047812Y-48315476D01*
X108952574Y-48220238D01*
X108904954Y-48077380D01*
X108904954Y-47982142D01*
X108952574Y-47839285D01*
X109000193Y-47791666D01*
X108904954Y-47458333D02*
X108904954Y-46839285D01*
X109285907Y-47172619D01*
X109285907Y-47029761D01*
X109333526Y-46934523D01*
X109381145Y-46886904D01*
X109476383Y-46839285D01*
X109714478Y-46839285D01*
X109809716Y-46886904D01*
X109857335Y-46934523D01*
X109904954Y-47029761D01*
X109904954Y-47315476D01*
X109857335Y-47410714D01*
X109809716Y-47458333D01*
%TO.C,BreakoutConnector1*%
X149788571Y-62197380D02*
X149836190Y-62054523D01*
X149883809Y-62006904D01*
X149979047Y-61959285D01*
X150121904Y-61959285D01*
X150217142Y-62006904D01*
X150264761Y-62054523D01*
X150312380Y-62149761D01*
X150312380Y-62530714D01*
X149312380Y-62530714D01*
X149312380Y-62197380D01*
X149360000Y-62102142D01*
X149407619Y-62054523D01*
X149502857Y-62006904D01*
X149598095Y-62006904D01*
X149693333Y-62054523D01*
X149740952Y-62102142D01*
X149788571Y-62197380D01*
X149788571Y-62530714D01*
X150312380Y-61530714D02*
X149645714Y-61530714D01*
X149836190Y-61530714D02*
X149740952Y-61483095D01*
X149693333Y-61435476D01*
X149645714Y-61340238D01*
X149645714Y-61245000D01*
X150264761Y-60530714D02*
X150312380Y-60625952D01*
X150312380Y-60816428D01*
X150264761Y-60911666D01*
X150169523Y-60959285D01*
X149788571Y-60959285D01*
X149693333Y-60911666D01*
X149645714Y-60816428D01*
X149645714Y-60625952D01*
X149693333Y-60530714D01*
X149788571Y-60483095D01*
X149883809Y-60483095D01*
X149979047Y-60959285D01*
X150312380Y-59625952D02*
X149788571Y-59625952D01*
X149693333Y-59673571D01*
X149645714Y-59768809D01*
X149645714Y-59959285D01*
X149693333Y-60054523D01*
X150264761Y-59625952D02*
X150312380Y-59721190D01*
X150312380Y-59959285D01*
X150264761Y-60054523D01*
X150169523Y-60102142D01*
X150074285Y-60102142D01*
X149979047Y-60054523D01*
X149931428Y-59959285D01*
X149931428Y-59721190D01*
X149883809Y-59625952D01*
X150312380Y-59149761D02*
X149312380Y-59149761D01*
X149931428Y-59054523D02*
X150312380Y-58768809D01*
X149645714Y-58768809D02*
X150026666Y-59149761D01*
X150312380Y-58197380D02*
X150264761Y-58292619D01*
X150217142Y-58340238D01*
X150121904Y-58387857D01*
X149836190Y-58387857D01*
X149740952Y-58340238D01*
X149693333Y-58292619D01*
X149645714Y-58197380D01*
X149645714Y-58054523D01*
X149693333Y-57959285D01*
X149740952Y-57911666D01*
X149836190Y-57864047D01*
X150121904Y-57864047D01*
X150217142Y-57911666D01*
X150264761Y-57959285D01*
X150312380Y-58054523D01*
X150312380Y-58197380D01*
X149645714Y-57006904D02*
X150312380Y-57006904D01*
X149645714Y-57435476D02*
X150169523Y-57435476D01*
X150264761Y-57387857D01*
X150312380Y-57292619D01*
X150312380Y-57149761D01*
X150264761Y-57054523D01*
X150217142Y-57006904D01*
X149645714Y-56673571D02*
X149645714Y-56292619D01*
X149312380Y-56530714D02*
X150169523Y-56530714D01*
X150264761Y-56483095D01*
X150312380Y-56387857D01*
X150312380Y-56292619D01*
X150217142Y-55387857D02*
X150264761Y-55435476D01*
X150312380Y-55578333D01*
X150312380Y-55673571D01*
X150264761Y-55816428D01*
X150169523Y-55911666D01*
X150074285Y-55959285D01*
X149883809Y-56006904D01*
X149740952Y-56006904D01*
X149550476Y-55959285D01*
X149455238Y-55911666D01*
X149360000Y-55816428D01*
X149312380Y-55673571D01*
X149312380Y-55578333D01*
X149360000Y-55435476D01*
X149407619Y-55387857D01*
X150312380Y-54816428D02*
X150264761Y-54911666D01*
X150217142Y-54959285D01*
X150121904Y-55006904D01*
X149836190Y-55006904D01*
X149740952Y-54959285D01*
X149693333Y-54911666D01*
X149645714Y-54816428D01*
X149645714Y-54673571D01*
X149693333Y-54578333D01*
X149740952Y-54530714D01*
X149836190Y-54483095D01*
X150121904Y-54483095D01*
X150217142Y-54530714D01*
X150264761Y-54578333D01*
X150312380Y-54673571D01*
X150312380Y-54816428D01*
X149645714Y-54054523D02*
X150312380Y-54054523D01*
X149740952Y-54054523D02*
X149693333Y-54006904D01*
X149645714Y-53911666D01*
X149645714Y-53768809D01*
X149693333Y-53673571D01*
X149788571Y-53625952D01*
X150312380Y-53625952D01*
X149645714Y-53149761D02*
X150312380Y-53149761D01*
X149740952Y-53149761D02*
X149693333Y-53102142D01*
X149645714Y-53006904D01*
X149645714Y-52864047D01*
X149693333Y-52768809D01*
X149788571Y-52721190D01*
X150312380Y-52721190D01*
X150264761Y-51864047D02*
X150312380Y-51959285D01*
X150312380Y-52149761D01*
X150264761Y-52245000D01*
X150169523Y-52292619D01*
X149788571Y-52292619D01*
X149693333Y-52245000D01*
X149645714Y-52149761D01*
X149645714Y-51959285D01*
X149693333Y-51864047D01*
X149788571Y-51816428D01*
X149883809Y-51816428D01*
X149979047Y-52292619D01*
X150264761Y-50959285D02*
X150312380Y-51054523D01*
X150312380Y-51245000D01*
X150264761Y-51340238D01*
X150217142Y-51387857D01*
X150121904Y-51435476D01*
X149836190Y-51435476D01*
X149740952Y-51387857D01*
X149693333Y-51340238D01*
X149645714Y-51245000D01*
X149645714Y-51054523D01*
X149693333Y-50959285D01*
X149645714Y-50673571D02*
X149645714Y-50292619D01*
X149312380Y-50530714D02*
X150169523Y-50530714D01*
X150264761Y-50483095D01*
X150312380Y-50387857D01*
X150312380Y-50292619D01*
X150312380Y-49816428D02*
X150264761Y-49911666D01*
X150217142Y-49959285D01*
X150121904Y-50006904D01*
X149836190Y-50006904D01*
X149740952Y-49959285D01*
X149693333Y-49911666D01*
X149645714Y-49816428D01*
X149645714Y-49673571D01*
X149693333Y-49578333D01*
X149740952Y-49530714D01*
X149836190Y-49483095D01*
X150121904Y-49483095D01*
X150217142Y-49530714D01*
X150264761Y-49578333D01*
X150312380Y-49673571D01*
X150312380Y-49816428D01*
X150312380Y-49054523D02*
X149645714Y-49054523D01*
X149836190Y-49054523D02*
X149740952Y-49006904D01*
X149693333Y-48959285D01*
X149645714Y-48864047D01*
X149645714Y-48768809D01*
X150312380Y-47911666D02*
X150312380Y-48483095D01*
X150312380Y-48197380D02*
X149312380Y-48197380D01*
X149455238Y-48292619D01*
X149550476Y-48387857D01*
X149598095Y-48483095D01*
%TO.C,REF\u002A\u002A*%
X105346666Y-97352380D02*
X105013333Y-96876190D01*
X104775238Y-97352380D02*
X104775238Y-96352380D01*
X105156190Y-96352380D01*
X105251428Y-96400000D01*
X105299047Y-96447619D01*
X105346666Y-96542857D01*
X105346666Y-96685714D01*
X105299047Y-96780952D01*
X105251428Y-96828571D01*
X105156190Y-96876190D01*
X104775238Y-96876190D01*
X105775238Y-96828571D02*
X106108571Y-96828571D01*
X106251428Y-97352380D02*
X105775238Y-97352380D01*
X105775238Y-96352380D01*
X106251428Y-96352380D01*
X107013333Y-96828571D02*
X106680000Y-96828571D01*
X106680000Y-97352380D02*
X106680000Y-96352380D01*
X107156190Y-96352380D01*
X107680000Y-96352380D02*
X107680000Y-96590476D01*
X107441904Y-96495238D02*
X107680000Y-96590476D01*
X107918095Y-96495238D01*
X107537142Y-96780952D02*
X107680000Y-96590476D01*
X107822857Y-96780952D01*
X108441904Y-96352380D02*
X108441904Y-96590476D01*
X108203809Y-96495238D02*
X108441904Y-96590476D01*
X108680000Y-96495238D01*
X108299047Y-96780952D02*
X108441904Y-96590476D01*
X108584761Y-96780952D01*
%TO.C,C1*%
X149202142Y-86526666D02*
X149249761Y-86574285D01*
X149297380Y-86717142D01*
X149297380Y-86812380D01*
X149249761Y-86955238D01*
X149154523Y-87050476D01*
X149059285Y-87098095D01*
X148868809Y-87145714D01*
X148725952Y-87145714D01*
X148535476Y-87098095D01*
X148440238Y-87050476D01*
X148345000Y-86955238D01*
X148297380Y-86812380D01*
X148297380Y-86717142D01*
X148345000Y-86574285D01*
X148392619Y-86526666D01*
X149297380Y-85574285D02*
X149297380Y-86145714D01*
X149297380Y-85860000D02*
X148297380Y-85860000D01*
X148440238Y-85955238D01*
X148535476Y-86050476D01*
X148583095Y-86145714D01*
%TO.C,U1*%
X131318095Y-64652380D02*
X131318095Y-65461904D01*
X131365714Y-65557142D01*
X131413333Y-65604761D01*
X131508571Y-65652380D01*
X131699047Y-65652380D01*
X131794285Y-65604761D01*
X131841904Y-65557142D01*
X131889523Y-65461904D01*
X131889523Y-64652380D01*
X132889523Y-65652380D02*
X132318095Y-65652380D01*
X132603809Y-65652380D02*
X132603809Y-64652380D01*
X132508571Y-64795238D01*
X132413333Y-64890476D01*
X132318095Y-64938095D01*
%TO.C,J1*%
X154007380Y-75898333D02*
X154721666Y-75898333D01*
X154864523Y-75945952D01*
X154959761Y-76041190D01*
X155007380Y-76184047D01*
X155007380Y-76279285D01*
X155007380Y-74898333D02*
X155007380Y-75469761D01*
X155007380Y-75184047D02*
X154007380Y-75184047D01*
X154150238Y-75279285D01*
X154245476Y-75374523D01*
X154293095Y-75469761D01*
%TO.C,DC_Converter1*%
X139462380Y-81366666D02*
X138462380Y-81366666D01*
X138462380Y-81128571D01*
X138510000Y-80985714D01*
X138605238Y-80890476D01*
X138700476Y-80842857D01*
X138890952Y-80795238D01*
X139033809Y-80795238D01*
X139224285Y-80842857D01*
X139319523Y-80890476D01*
X139414761Y-80985714D01*
X139462380Y-81128571D01*
X139462380Y-81366666D01*
X139367142Y-79795238D02*
X139414761Y-79842857D01*
X139462380Y-79985714D01*
X139462380Y-80080952D01*
X139414761Y-80223809D01*
X139319523Y-80319047D01*
X139224285Y-80366666D01*
X139033809Y-80414285D01*
X138890952Y-80414285D01*
X138700476Y-80366666D01*
X138605238Y-80319047D01*
X138510000Y-80223809D01*
X138462380Y-80080952D01*
X138462380Y-79985714D01*
X138510000Y-79842857D01*
X138557619Y-79795238D01*
X139557619Y-79604761D02*
X139557619Y-78842857D01*
X139367142Y-78033333D02*
X139414761Y-78080952D01*
X139462380Y-78223809D01*
X139462380Y-78319047D01*
X139414761Y-78461904D01*
X139319523Y-78557142D01*
X139224285Y-78604761D01*
X139033809Y-78652380D01*
X138890952Y-78652380D01*
X138700476Y-78604761D01*
X138605238Y-78557142D01*
X138510000Y-78461904D01*
X138462380Y-78319047D01*
X138462380Y-78223809D01*
X138510000Y-78080952D01*
X138557619Y-78033333D01*
X139462380Y-77461904D02*
X139414761Y-77557142D01*
X139367142Y-77604761D01*
X139271904Y-77652380D01*
X138986190Y-77652380D01*
X138890952Y-77604761D01*
X138843333Y-77557142D01*
X138795714Y-77461904D01*
X138795714Y-77319047D01*
X138843333Y-77223809D01*
X138890952Y-77176190D01*
X138986190Y-77128571D01*
X139271904Y-77128571D01*
X139367142Y-77176190D01*
X139414761Y-77223809D01*
X139462380Y-77319047D01*
X139462380Y-77461904D01*
X138795714Y-76700000D02*
X139462380Y-76700000D01*
X138890952Y-76700000D02*
X138843333Y-76652380D01*
X138795714Y-76557142D01*
X138795714Y-76414285D01*
X138843333Y-76319047D01*
X138938571Y-76271428D01*
X139462380Y-76271428D01*
X138795714Y-75890476D02*
X139462380Y-75652380D01*
X138795714Y-75414285D01*
X139414761Y-74652380D02*
X139462380Y-74747619D01*
X139462380Y-74938095D01*
X139414761Y-75033333D01*
X139319523Y-75080952D01*
X138938571Y-75080952D01*
X138843333Y-75033333D01*
X138795714Y-74938095D01*
X138795714Y-74747619D01*
X138843333Y-74652380D01*
X138938571Y-74604761D01*
X139033809Y-74604761D01*
X139129047Y-75080952D01*
X139462380Y-74176190D02*
X138795714Y-74176190D01*
X138986190Y-74176190D02*
X138890952Y-74128571D01*
X138843333Y-74080952D01*
X138795714Y-73985714D01*
X138795714Y-73890476D01*
X138795714Y-73700000D02*
X138795714Y-73319047D01*
X138462380Y-73557142D02*
X139319523Y-73557142D01*
X139414761Y-73509523D01*
X139462380Y-73414285D01*
X139462380Y-73319047D01*
X139414761Y-72604761D02*
X139462380Y-72700000D01*
X139462380Y-72890476D01*
X139414761Y-72985714D01*
X139319523Y-73033333D01*
X138938571Y-73033333D01*
X138843333Y-72985714D01*
X138795714Y-72890476D01*
X138795714Y-72700000D01*
X138843333Y-72604761D01*
X138938571Y-72557142D01*
X139033809Y-72557142D01*
X139129047Y-73033333D01*
X139462380Y-72128571D02*
X138795714Y-72128571D01*
X138986190Y-72128571D02*
X138890952Y-72080952D01*
X138843333Y-72033333D01*
X138795714Y-71938095D01*
X138795714Y-71842857D01*
X139462380Y-70985714D02*
X139462380Y-71557142D01*
X139462380Y-71271428D02*
X138462380Y-71271428D01*
X138605238Y-71366666D01*
X138700476Y-71461904D01*
X138748095Y-71557142D01*
%TO.C,RESET_SW1*%
X115482380Y-58042142D02*
X115006190Y-58375476D01*
X115482380Y-58613571D02*
X114482380Y-58613571D01*
X114482380Y-58232619D01*
X114530000Y-58137380D01*
X114577619Y-58089761D01*
X114672857Y-58042142D01*
X114815714Y-58042142D01*
X114910952Y-58089761D01*
X114958571Y-58137380D01*
X115006190Y-58232619D01*
X115006190Y-58613571D01*
X114958571Y-57613571D02*
X114958571Y-57280238D01*
X115482380Y-57137380D02*
X115482380Y-57613571D01*
X114482380Y-57613571D01*
X114482380Y-57137380D01*
X115434761Y-56756428D02*
X115482380Y-56613571D01*
X115482380Y-56375476D01*
X115434761Y-56280238D01*
X115387142Y-56232619D01*
X115291904Y-56185000D01*
X115196666Y-56185000D01*
X115101428Y-56232619D01*
X115053809Y-56280238D01*
X115006190Y-56375476D01*
X114958571Y-56565952D01*
X114910952Y-56661190D01*
X114863333Y-56708809D01*
X114768095Y-56756428D01*
X114672857Y-56756428D01*
X114577619Y-56708809D01*
X114530000Y-56661190D01*
X114482380Y-56565952D01*
X114482380Y-56327857D01*
X114530000Y-56185000D01*
X114958571Y-55756428D02*
X114958571Y-55423095D01*
X115482380Y-55280238D02*
X115482380Y-55756428D01*
X114482380Y-55756428D01*
X114482380Y-55280238D01*
X114482380Y-54994523D02*
X114482380Y-54423095D01*
X115482380Y-54708809D02*
X114482380Y-54708809D01*
X115577619Y-54327857D02*
X115577619Y-53565952D01*
X115434761Y-53375476D02*
X115482380Y-53232619D01*
X115482380Y-52994523D01*
X115434761Y-52899285D01*
X115387142Y-52851666D01*
X115291904Y-52804047D01*
X115196666Y-52804047D01*
X115101428Y-52851666D01*
X115053809Y-52899285D01*
X115006190Y-52994523D01*
X114958571Y-53185000D01*
X114910952Y-53280238D01*
X114863333Y-53327857D01*
X114768095Y-53375476D01*
X114672857Y-53375476D01*
X114577619Y-53327857D01*
X114530000Y-53280238D01*
X114482380Y-53185000D01*
X114482380Y-52946904D01*
X114530000Y-52804047D01*
X114482380Y-52470714D02*
X115482380Y-52232619D01*
X114768095Y-52042142D01*
X115482380Y-51851666D01*
X114482380Y-51613571D01*
X115482380Y-50708809D02*
X115482380Y-51280238D01*
X115482380Y-50994523D02*
X114482380Y-50994523D01*
X114625238Y-51089761D01*
X114720476Y-51185000D01*
X114768095Y-51280238D01*
D12*
%TO.C,D2*%
X103525000Y-75925000D02*
X103525000Y-77745000D01*
X103525000Y-77745000D02*
X106410000Y-77745000D01*
X106410000Y-75925000D02*
X103525000Y-75925000D01*
D13*
%TO.C,Nav_Switch1*%
X112445000Y-81970000D02*
X112445000Y-81970000D01*
X114145000Y-85070000D02*
X114145000Y-91970000D01*
X112445000Y-82070000D02*
X112445000Y-82070000D01*
X104145000Y-84770000D02*
X104145000Y-92270000D01*
X112445000Y-82070000D02*
G75*
G02*
X112445000Y-81970000I0J50000D01*
G01*
X112445000Y-81970000D02*
G75*
G02*
X112445000Y-82070000I0J-50000D01*
G01*
D12*
%TO.C,D3*%
X103525000Y-72030000D02*
X106410000Y-72030000D01*
X103525000Y-70210000D02*
X103525000Y-72030000D01*
X106410000Y-70210000D02*
X103525000Y-70210000D01*
%TO.C,R2*%
X111157936Y-72030000D02*
X112362064Y-72030000D01*
X111157936Y-70210000D02*
X112362064Y-70210000D01*
%TO.C,R4*%
X118458064Y-84330000D02*
X117253936Y-84330000D01*
X118458064Y-86150000D02*
X117253936Y-86150000D01*
D10*
%TO.C,J2*%
X154653780Y-85193021D02*
X154653780Y-84193021D01*
X160353780Y-91143021D02*
X160353780Y-90843021D01*
X160353780Y-83143021D02*
X160353780Y-82843021D01*
X157803780Y-82843021D02*
X156403780Y-82843021D01*
X156403780Y-91143021D02*
X157803780Y-91143021D01*
X160353780Y-82843021D02*
X160203780Y-82843021D01*
X160353780Y-90843021D02*
X160803780Y-90843021D01*
X160203780Y-91143021D02*
X160353780Y-91143021D01*
X154228780Y-88068021D02*
X154228780Y-88793021D01*
X160803780Y-83143021D02*
X160353780Y-83143021D01*
X154228780Y-88793021D02*
X154653780Y-88793021D01*
X154653780Y-88793021D02*
X154653780Y-89793021D01*
D12*
%TO.C,RN1*%
X118774000Y-77972000D02*
X117774000Y-77972000D01*
X118774000Y-81332000D02*
X117774000Y-81332000D01*
%TO.C,D1*%
X126110000Y-75340000D02*
X126110000Y-80740000D01*
X122810000Y-75340000D02*
X122810000Y-80740000D01*
X126110000Y-75340000D02*
X122810000Y-75340000D01*
%TO.C,R3*%
X111157936Y-65045000D02*
X112362064Y-65045000D01*
X111157936Y-63225000D02*
X112362064Y-63225000D01*
%TO.C,C2*%
X132005000Y-76573748D02*
X132005000Y-77096252D01*
X133425000Y-76573748D02*
X133425000Y-77096252D01*
%TO.C,R1*%
X111157936Y-75925000D02*
X112362064Y-75925000D01*
X111157936Y-77745000D02*
X112362064Y-77745000D01*
%TO.C,D4*%
X103525000Y-65045000D02*
X106410000Y-65045000D01*
X106410000Y-63225000D02*
X103525000Y-63225000D01*
X103525000Y-63225000D02*
X103525000Y-65045000D01*
%TO.C,C3*%
X111392574Y-47796267D02*
X111392574Y-47453733D01*
X110372574Y-47796267D02*
X110372574Y-47453733D01*
%TO.C,BreakoutConnector1*%
X152400000Y-67370000D02*
X151290000Y-67370000D01*
X162490000Y-65596670D02*
X153860000Y-65596670D01*
X153860000Y-66400000D02*
X153510000Y-66400000D01*
X162490000Y-46930000D02*
X153860000Y-46930000D01*
X162490000Y-65124290D02*
X153860000Y-65124290D01*
X162490000Y-65950955D02*
X153860000Y-65950955D01*
X153860000Y-47900000D02*
X153450000Y-47900000D01*
X162490000Y-57150000D02*
X153860000Y-57150000D01*
X153860000Y-60600000D02*
X153450000Y-60600000D01*
X162490000Y-66305240D02*
X153860000Y-66305240D01*
X162490000Y-62230000D02*
X153860000Y-62230000D01*
X162490000Y-66777620D02*
X153860000Y-66777620D01*
X162490000Y-65360480D02*
X153860000Y-65360480D01*
X162490000Y-67370000D02*
X162490000Y-46930000D01*
X153860000Y-63140000D02*
X153450000Y-63140000D01*
X151290000Y-67370000D02*
X151290000Y-66040000D01*
X153860000Y-50440000D02*
X153450000Y-50440000D01*
X153860000Y-55520000D02*
X153450000Y-55520000D01*
X153860000Y-51160000D02*
X153450000Y-51160000D01*
X162490000Y-66895715D02*
X153860000Y-66895715D01*
X162490000Y-67370000D02*
X153860000Y-67370000D01*
X153860000Y-63860000D02*
X153450000Y-63860000D01*
X162490000Y-52070000D02*
X153860000Y-52070000D01*
X153860000Y-58780000D02*
X153450000Y-58780000D01*
X162490000Y-65242385D02*
X153860000Y-65242385D01*
X162490000Y-66541430D02*
X153860000Y-66541430D01*
X162490000Y-66069050D02*
X153860000Y-66069050D01*
X162490000Y-66659525D02*
X153860000Y-66659525D01*
X162490000Y-67250000D02*
X153860000Y-67250000D01*
X162490000Y-67013810D02*
X153860000Y-67013810D01*
X153860000Y-53700000D02*
X153450000Y-53700000D01*
X162490000Y-65832860D02*
X153860000Y-65832860D01*
X162490000Y-66423335D02*
X153860000Y-66423335D01*
X162490000Y-65006195D02*
X153860000Y-65006195D01*
X162490000Y-67131905D02*
X153860000Y-67131905D01*
X153860000Y-67370000D02*
X153860000Y-46930000D01*
X162490000Y-54610000D02*
X153860000Y-54610000D01*
X162490000Y-65714765D02*
X153860000Y-65714765D01*
X153860000Y-48620000D02*
X153450000Y-48620000D01*
X162490000Y-59690000D02*
X153860000Y-59690000D01*
X162490000Y-64770000D02*
X153860000Y-64770000D01*
X162490000Y-49530000D02*
X153860000Y-49530000D01*
X153860000Y-65680000D02*
X153510000Y-65680000D01*
X153860000Y-52980000D02*
X153450000Y-52980000D01*
X162490000Y-65478575D02*
X153860000Y-65478575D01*
X153860000Y-58060000D02*
X153450000Y-58060000D01*
X162490000Y-64888100D02*
X153860000Y-64888100D01*
X162490000Y-66187145D02*
X153860000Y-66187145D01*
X153860000Y-56240000D02*
X153450000Y-56240000D01*
X153860000Y-61320000D02*
X153450000Y-61320000D01*
%TO.C,C1*%
X151205000Y-86621252D02*
X151205000Y-86098748D01*
X149785000Y-86621252D02*
X149785000Y-86098748D01*
%TO.C,U1*%
X122395000Y-63705000D02*
X122395000Y-64385000D01*
X141765000Y-64385000D02*
X122395000Y-64385000D01*
X141765000Y-63705000D02*
X141765000Y-64385000D01*
X121080000Y-47445000D02*
X121080000Y-46785000D01*
%TO.C,J1*%
X160625000Y-76775000D02*
X160675000Y-76775000D01*
X160675000Y-76775000D02*
X160675000Y-74355000D01*
X155555000Y-74355000D02*
X155605000Y-74355000D01*
X160625000Y-74355000D02*
X160675000Y-74355000D01*
X155555000Y-76775000D02*
X155605000Y-76775000D01*
X155605000Y-78155000D02*
X155605000Y-76775000D01*
X155555000Y-76775000D02*
X155555000Y-74355000D01*
%TO.C,DC_Converter1*%
X140100000Y-74290000D02*
X141360000Y-74290000D01*
X146920000Y-78050000D02*
X146920000Y-74290000D01*
X146920000Y-74290000D02*
X145660000Y-74290000D01*
X140100000Y-80300000D02*
X140100000Y-74290000D01*
%TO.C,RESET_SW1*%
X110030000Y-58185000D02*
X111530000Y-58185000D01*
X114030000Y-56935000D02*
X114030000Y-52435000D01*
X111530000Y-51185000D02*
X110030000Y-51185000D01*
X107530000Y-52435000D02*
X107530000Y-56935000D01*
%TD*%
M02*
